<?xml version="1.0" encoding="utf-8"?>
<!-- Generator: Adobe Illustrator 28.0.0, SVG Export Plug-In . SVG Version: 6.00 Build 0)  -->
<svg version="1.1" id="Layer_1" xmlns="http://www.w3.org/2000/svg" xmlns:xlink="http://www.w3.org/1999/xlink" x="0px" y="0px"
	 viewBox="0 0 354.9 311.8" style="enable-background:new 0 0 354.9 311.8;" xml:space="preserve">
<style type="text/css">
	.st0{fill:#C79535;}
</style>
<g>
	<path class="st0" d="M219.1,195.5c0.8,0.2,1.4,0.3,1.8,0.4c1.4-0.3,2-1.2,2.4-2.2c0-0.6,0-1.2,0-1.7c-0.7-1.5-1.3-2.9-2.9-3.4
		c-0.4,0.1-0.8,0.3-1.3,0.4c-0.8,0.6-1.4,1.3-1.7,2.3c0,0.7,0,1.3,0,1.9C217.8,194.3,218.4,195.1,219.1,195.5z"/>
	<path class="st0" d="M191.4,199.3C191.4,199.3,191.4,199.3,191.4,199.3C191.4,199.3,191.4,199.3,191.4,199.3z"/>
	<path class="st0" d="M337.1,85.5c0.2-0.8,0.3-1.6,0.6-2.4c0.4-0.9,0.1-1.8,0.2-2.7c-0.6-0.3-1.1-0.6-1.5-0.9c-0.4,0-0.7,0-1,0.1
		c-0.6,0.3-1.1,0.3-1.7,0.2c-0.1,0-0.2-0.1-0.4-0.2c0-0.4-0.1-0.7-0.2-1.2c-0.3-0.3-0.6-0.8-1.1-1.1c-0.8-0.5-1.5-0.8-2.5-0.5
		c-1,0.3-2.1,0.7-3,1.2c-0.8,0.4-1.6,0.9-2.3,1.4c-0.8,0.6-1.6,1.3-2.6,1.6c-0.7,0.2-1.3,0.5-2,0.7c-0.6,0.2-1.1-0.4-1.7-0.4
		c-0.3,0-0.6-0.2-0.9-0.4c-2,0-4,0-6.1,0c-0.1,0-0.2-0.1-0.4-0.2c0-0.2,0-0.5-0.1-0.7c0.3-0.4,0.5-0.7,0.6-0.8
		c0.2-0.6,0.2-1.1,0.4-1.5c0.8-2.3,1.5-4.6,2.3-7c0.4-1.2,0.9-2.4,0.6-3.8c-0.3-0.6-0.6-1.3-1-1.9c-0.5-0.2-1-0.5-1.4-0.6
		c-0.6,0-0.8,0.4-1.2,0.6c-0.3,0.2-0.7,0.2-1.1,0.3c-0.9,1.4-1.9,2.8-2.7,4.3c-0.1,0.2-0.2,0.5-0.4,0.7c-1,0.8-1.3,2.1-2,3.2
		c-0.5,0.5-1.2,1.1-1.7,1.7c-1.1,1.3-2.1,2.6-2.4,4.4c-0.1,0.7-0.4,1.4-0.3,2.1c0.1,0.8-0.5,1.3-0.4,2.1c0,0.7,0,1.3,0,1.8
		c-0.6,1.2-1.2,2.3-1.8,3.6c-2.2,2.2-4.6,4.6-7,6.9c-2.4,2.4-4.7,5-7.4,7c-0.7,0.6-1.3,1.3-1.9,1.9c-1.4,0.2-2.5,1-3.7,1.6
		c-0.8,0.4-1.6,0.8-2.4,1.2c-0.5,0.2-1,0.2-1.5,0.3c-1.3,0.4-2.6,0.4-3.8,0c-1.3-0.4-2.7-0.9-3.9-1.6c-0.3-0.1-0.6-0.3-0.8-0.5
		c-1.1-0.9-2.4-1.3-3.6-1.9c-0.7-0.4-1.5-0.7-2.3-0.9c-0.9-0.2-1.4-0.9-2.2-1.2c-1.8-0.8-3.6-1.6-5.6-2.2c-2.1-0.7-4.3-1.4-6.3-2.3
		c-0.2-0.1-0.5-0.2-0.7-0.2c-1-0.1-2-0.5-2.9-1c-0.7-0.4-1.5-0.7-2.3-0.9c-0.7-0.1-1.3-0.5-2.1-0.5c-0.5-0.6-1.3-0.2-1.8-0.5
		c-0.7-0.4-1.4-0.2-2.1-0.2c-1.8,0-3.7,0-5.5,0c-0.5,0-1,0-1.5-0.2c-0.6-0.2-1.3-0.1-1.9-0.1c-0.8,0.5-1.6,0.3-2.5,0.4
		c-0.5,0-1-0.1-1.4,0.1c-1,0.5-2.1,0.2-3.1,0.3c-0.5,0.1-1.1,0-1.5,0.2c-0.5,0.2-0.9,0.2-1.3,0.2c-0.4,0-0.9-0.1-1.2,0.1
		c-0.8,0.5-1.7,0.2-2.5,0.4c-1.8,1.2-3.8,1.2-5.6,1.1c-0.6,0.2-0.9,0.3-1.2,0.4c-0.4-0.2-0.7-0.3-1-0.4c-0.5,0-1,0-1.3,0
		c-1.1-0.3-1.9-0.7-2.6-1.2c-0.6-0.4-1.2-0.8-1.9-0.9c-0.5-1-1-1.9-1.4-2.8c0.1-0.2,0.1-0.3,0.2-0.4c-0.2-0.5-0.5-1-0.7-1.6
		c0.3-0.6,0.7-1.2,0.8-1.8c0.4-1.7,1.2-3.1,2-4.7c0-0.4,0-0.8,0-1.2c0.3-0.5,0.5-1,0.8-1.5c0.1-0.6,0.1-1.2,0.3-1.9
		c0.2-0.6,0.1-1.4,0.2-2.1c0-0.1,0.1-0.2,0.1-0.4c0.5-0.7-0.1-1.7,0.6-2.4c0.1-0.1,0-0.3,0-0.4c0.1-1.2-0.1-2.5,0.4-3.7
		c0.2-0.6,0-1.3,0.1-2c0.1-0.7,0.3-1.4,0.4-2.1c0.1-0.8,0-1.7,0-2.5c-0.4-0.8-0.9-1.5-0.8-2.4c-0.5-0.8-0.7-1.6-0.9-2.5
		c-0.3-1.2-2-3.3-2.9-4.2c-0.7-0.7-1.2-1.5-1.4-2.5c-0.9-0.8-1.7-1.9-2.3-3c-0.7-1.3-1.4-2.5-2.5-3.3c-0.2-0.5-0.4-0.8-0.6-1.1
		c-0.6-1-1.2-2-2.2-2.7c-0.7-0.5-1.5-1-2.3-1.5c-0.4-0.2-0.8-0.3-1.3-0.5c-0.2-0.1-0.5-0.2-0.7-0.3c-1.2-0.8-2.7-1.3-4-2
		c-0.3-0.1-0.6-0.2-0.6-0.2c-1.1-0.7-1.9-1.2-2.7-1.8c-1.2-1.5-2.2-3.2-3.9-4.3c-0.6-0.4-2.1-1.4-2.6-1.4c-0.7,0-1.2-0.5-1.9-0.4
		c-0.7,0.1-1.4-0.1-2.1-0.4c-1.3,0.1-2.7-0.3-4.1,0.3c-0.5,0.2-1.1,0.1-1.7-0.1c-0.8-0.3-1.7-0.7-2.5-0.9c-1.2-0.2-2-0.9-2.8-1.7
		c-0.4-0.5-0.9-1-1.4-1.4c-0.5-0.4-1-0.8-1.5-1.2c-0.6-0.5-1.3-0.9-2-1.4c-0.4,0-1,0.2-1.4,0c-1.1-0.5-2.2-0.3-3.2-0.3
		c-0.6,0.3-1.1,0.5-1.7,0.8c-0.5-0.1-1.1-0.2-1.5-0.4c-0.9,0.3-1.8,0.6-2.6,0.9c-0.2,0.5,0.2,0.7,0.6,1c2.5,0,5,0,7.5,0
		c1.1,0.5,2.3,0.8,3.3,1.5c1.3,0.9,2.7,1.8,4,2.7c0.5,0.3,0.9,0.7,1.5,0.9c1.6,0.5,3.2,1,4.9,0.9c0.4,0.4,0.7-0.1,1.1-0.1
		c1.4,0,2.8,0,4.1,0c0.6,0,1.3,0.2,1.9,0.4c1.2,0.3,2.5,0.8,3.5,1.5c0.4,0.3,0.7,0.5,1.2,0.8c0.5,0.9,1.1,1.8,1.6,2.7
		c0.8,0.7,1.6,1.3,2.4,2c1.1,0.4,2.1,1.4,3.5,1.3c0.4,0.3,0.8,0.7,1.1,1c1.7,0.5,2.8,1.8,4.1,2.2c0.7,0.8,1.1,1.4,1.7,2
		c1.3,1.3,2.5,2.8,3.5,4.4c0.4,0.6,0.7,1.3,1.1,1.8c0.6,0.9,1.3,1.7,2,2.6c-0.2,0.2-0.5,0.4-0.7,0.4c-0.8-0.1-1.4,0.3-2.1,0.5
		c-1.1,0.4-2.2,1.1-3.4,1.3c-0.3,0-0.6,0.2-0.9,0.4c-0.4,0.3-0.7,0.5-1.2,0.6c-0.5,0.1-0.6,0.8-1.2,0.9c-0.2,0.1-0.3,0.4-0.4,0.6
		c-0.5,1.1-1.3,2.1-1.9,3.1c0,0.8,0,1.5,0,2.2c1.1,1.7,1.5,3.6,2.3,5.4c0.7,1.4,0.9,3,2,4.2c0.2,0.3,0.3,0.7,0.4,1.1
		c0.3,0.7,0.5,1.4,0.8,2.2c0.2,0.5,1.3,1.4,0.2,1.8c-1.1,0.4-1-1.2-1.4-1.8c-0.4-0.7-0.8-1.3-1-2.1c-0.3-0.7-0.8-1.3-1-2
		c-0.3-1-1-1.8-1.3-2.8c-0.5-1.5-1.1-2.9-1.7-4.3c-0.4-1-1-2-1.2-3.1c0-0.2-0.3-0.4-0.4-0.6c-1.3-0.3-2.5-0.5-3.6-0.7
		c-0.8,0.2-1.7,0.2-2.5,0.6c-0.5,0.2-0.9,0.5-1.4,0.6c-0.5,0.2-1,0.2-1.5,0.4c-0.6,0.2-1.2,0.3-1.7,0.8c-0.2,0.2-0.6,0.2-1,0.3
		c-1.2,1.2-2.6,2.4-3.5,3.9c-0.4,0.8-1,1.4-1.4,1.7c-1.8,0.5-3.2-0.3-4.6-0.3c-1.2-0.3-1.8-1.2-2.5-1.8c-0.9-0.4-1.7-0.7-2.1-1.5
		c-0.4-0.8-1-1.2-1.5-1.7c-0.8-0.3-1.5-0.7-2.2-0.9c-0.8-0.3-1.6-0.4-2.4-0.6c-0.7-0.2-1.6-0.1-2.3-0.1c-0.5,0.3-1.1,0.6-1.6,0.7
		c-1.3,0.2-2.5,0.7-3.6,1.3c-0.7,0-1.4,0-2,0c-0.9,0.8-2.1,0.7-3.1,1.1c-0.4,0.1-0.9,0-1.1,0c-0.6-0.6-1-1.1-1.4-1.6
		c-0.4-0.4-0.9-0.8-1.2-1.3c-0.7-1.3-1.8-2-3.2-2.3c-1.1-0.3-2.2-0.8-3.4-0.6c-0.8,0.1-1.5,0.4-2.3,0.4c-1.4,0.7-3.1,0.8-4.5,1.7
		c-0.2,0.1-0.5,0.2-0.7,0.3c-1,0.5-2,0.8-3.2,0.8c-1,0-2,0-2.9,0c-1.9-0.7-3.2-2.1-4.6-3.3c-1.6-1.3-3.4-2.5-5.8-3.4c-1,0-2.1,0-3,0
		c-2.2,0.8-4.2,1.5-6.2,1.9c-0.4-0.1-0.7-0.3-1.1-0.3c-0.4-0.1-0.8-0.1-1.1-0.1c-1.5-0.6-2.7-1.5-4.1-2c-0.9-0.3-1.7-0.5-2.6-0.7
		c-0.2,0-0.5,0.1-0.7,0.1c-0.2,0.7,0,1.1,0.6,1.4c0.5,0,1.1,0,1.6,0c0.9,0.3,1.7,0.7,2.7,1c0.7,0.7,1.5,1.6,2.2,2.3
		c0.7,0.2,1.1,0.4,1.6,0.6c0.7,0,1.3,0,1.9,0c0.1-0.1,0.3-0.2,0.4-0.2c1.3-0.4,2.6-0.7,3.7-1.6c0.4-0.3,1.1-0.4,1.7-0.6
		c0.3,0.1,0.5,0.3,0.9,0.4c0.5,0,1.1,0,1.6,0c1.1,0.5,2.1,1,2.7,1.7c0.8,0.3,1.5,0.6,2,0.8c0.4,1.1,1.2,1.7,1.8,2.3
		c2.3,1.5,4.7,1.6,7.1,1.4c0.6-0.3,1.2-0.7,1.7-0.7c0.8-0.1,1.4-0.4,2-0.7c0.3-0.2,0.7-0.3,1.2-0.5c0.5,0,1.1,0,1.2,0
		c1.6-0.6,2.9-1.1,4.1-1.5c0.6,0.2,1,0.3,1.4,0.4c0.8,0.8,1.7,1.4,2.3,2.3c0.6,0.9,1.3,1.6,2,2.3c0.3,0,0.5,0,0.6,0.1
		c0.6,0.5,1.4,0.3,2,0.6c0.6,0.2,1.4,0.1,2.1,0.2c0.7,0.1,1.3-0.3,1.9-0.4c1.4-0.1,2.7-0.7,4-1.2c1.8-0.7,3.6-1.4,5.6-1.2
		c0.5,0.1,1,0,1.7,0c0.5,0.3,1,0.7,1.5,1.1c0.4,0.3,0.7,0.5,1.1,0.8c0.4,0.2,0.3,0.9,0.9,1c1.2,1,2.4,2,3.4,2.8
		c1.4,0.9,2.7,1.5,4.1,1.8c1.1,0.3,2.2-0.3,3.3-0.4c0.4-0.1,0.9-0.3,1.2-0.5c0.6-0.5,1.2-1,1.6-1.7c0.9-1.3,1.7-2.7,3-3.7
		c0.2-0.1,0.3-0.4,0.4-0.6c0.6-0.2,1.2-0.4,1.7-0.5c1.2-0.3,2.4-0.5,3.5-0.9c0.7-0.3,1.3-0.4,1.9-0.1c0.6,0.3,1.3,0.1,2,0.3
		c1,0.6,1.3,1.7,1.7,2.7c0.6,1.5,1.2,3,1.9,4.4c0.7,1.5,1.5,2.9,2,4.4c0.3,0.9,0.6,1.8,0.9,2.8c0.2,0.6,0.3,1.3,1,1.7
		c0.4,0,1,0,1.4,0c0.4-0.2,0.7-0.4,1.1-0.5c0.4-0.2,0.8-0.5,1.1-0.7c0.1-0.8,0-1.5-0.2-2.2c-0.2-0.7-0.5-1.3-0.8-2
		c-0.3-0.6-0.5-1.2-0.5-1.8c-0.3-0.4-0.6-0.6-0.7-1c-0.7-1.5-1.2-3.1-1.6-4.7c0-0.1,0.2-0.3,0.3-0.5c1.6,1,3.4,1.5,5.1,1.2
		c0.4,0.2,0.7,0.3,0.8,0.4c1.6-0.4,2.8-1.1,4-1.9c0.7-0.5,1.2-1.1,1.4-1.8c0.2-0.8,0.7-1.4,1.1-2c0.3,1.1,0.6,2,0.9,3.1
		c-0.2,0.4-0.3,0.9-0.3,1.4c0,0.8,0.2,1.6-0.1,2.3c-0.3,0.8-0.3,1.6-0.3,2.5c0,0.2,0,0.4-0.1,0.6c-0.5,0.7-0.2,1.5-0.5,2.3
		c-0.3,0.7-0.2,1.5-0.2,2.3c0,0.8,0,1.6,0,2.3c-0.3,0.6-0.5,1-0.7,1.4c-0.2,1.3-0.4,2.4-0.6,3.6c-0.2,0.3-0.4,0.6-0.6,0.8
		c0,0.4,0,0.7-0.1,1c0,0.1-0.1,0.1-0.1,0.2c-0.6,1.1-1.1,2.4-2,3.3c-0.4,0.4-0.5,1.2-0.9,2c-0.3,0.4-1,0.7-1.7,1.1
		c-0.4,0.2-0.7,0.4-0.7,1.1c0.1,0.1,0.3,0.3,0.5,0.4c0.8,0,1.4,0,1.8,0c0.6-0.3,1-0.5,1.4-0.7c0.5,0.9,1,1.7,1.6,2.7
		c0.8,0.8,1.7,1.7,2.5,2.5c0.8,0.4,1.3,0.7,1.9,0.9c0.7,0.1,1.3,0.1,1.9,0.3c0.8,0.4,1.7,0.6,2.6,0.5c0.8-0.1,1.6,0,2.3-0.4
		c0.9,0.1,1.8-0.3,2.6-0.6c0.4-0.1,0.9-0.2,1.4-0.3c0.3-0.2,0.6-0.4,1-0.7c0.7,0,1.4,0,2.1,0c0.7-0.5,1.5-0.3,2.3-0.3
		c0.5,0,1.1,0.1,1.6-0.1c0.8-0.4,1.7-0.3,2.5-0.3c0.3,0,0.7,0,0.9-0.2c0.4-0.2,0.9-0.2,1.3-0.2c2.2,0,4.5,0,6.7,0
		c0.7,0,1.3,0.1,1.9,0.3c0.7,0.2,1.4,0.1,2.1,0.1c0.1,0,0.2,0.1,0.3,0.2c0.2,0.1,0.4,0.1,0.5,0.1c0.4-0.1,0.7-0.3,1.1-0.4
		c0.4,0.1,0.7,0.3,1.1,0.4c0.6,0,1.3,0,1.8,0c0.3,0.2,0.6,0.3,0.8,0.4c1.4,0.5,2.8,0.9,4.1,1.6c1.9,0.9,3.9,1.3,5.8,2
		c0.8,0,1.4,0.4,2,0.8c1.5,1.1,3.4,1.6,4.9,2.8c1.3,0.3,2.4,0.9,3.6,1.3c1,0.3,2,0.7,2.9,1.4c1.3,1,2.8,1.8,4.5,2.1
		c0.3,0.1,0.6,0.3,0.7,0.3c0.8,0,1.5-0.1,2.1,0.1c1.1,0.4,2.2,0.6,3.3,0.9c0.6-0.2,1.2-0.4,1.9-0.6c0.6,0,1.2,0,1.9,0
		c1-0.5,2-0.9,3-1.4c0.2-0.1,0.4-0.2,0.5-0.2c0.9-0.2,1.5-0.7,2.1-1.3c0.7-0.7,1.3-1.5,2.1-2c1.2-0.8,2.2-1.8,3.1-2.9
		c0.1-0.1,0.2-0.3,0.4-0.4c0.7-0.6,1.3-1.2,2-1.8c0.5-0.5,1.1-0.9,1.7-1.4c0.9-1.6,2.1-3,3.6-4.2c1.5-1.2,3-2.2,4.3-3.6
		c0.9-1.8,2.2-3.3,2.6-5.5c0-0.3,0.1-0.8,0-1.3c-0.1-0.9,0.2-1.7,0.5-2.4c0.9-2.1,1.7-4.3,2.9-6.7c0.3-0.2,0.8-0.6,1.2-0.9
		c0.1-0.5,0-0.8,0.2-1c0.8-1,1.2-2.3,1.9-3.4c0.4-0.7,0.8-1.5,1.4-2.1c0.1-0.1,0.3-0.2,0.4-0.3c0.5,0,1,0,1.5,0
		c0.1,0.1,0.3,0.3,0.5,0.5c0,0.6,0,1,0,1.5c-0.4,1-1,1.9-1.3,3c-0.3,0.9-0.6,1.9-1.1,2.6c-0.8,1.1-1.2,2.3-1.7,3.1
		c-0.4,1.2,0.2,1.8,0.2,2.6c0.1,0.8-0.1,1.6,0.1,2.4c0.5,0.3,1,0.6,1.4,0.8c3.8,0,7.5,0,11.2,0c2.4-1.3,4.9-2.6,7.3-3.9
		c0.5,0,0.9,0,1.3,0c0.1,0,0.2,0.1,0.3,0.2c0.2,0.7-0.7,0.5-0.7,1c-0.9,1.2-1.9,2.2-3,3c-0.8,0.6-1.6,1-2.4,1.7
		c-0.3,0.3-0.8,0.6-1.2,0.6c-1,0-1.9,0.6-2.9,0.5c-0.1,0-0.2,0.1-0.4,0.2c0,0.2,0,0.5,0,0.7c0.2,0.2,0.4,0.4,0.6,0.5
		c0.2,0,0.4,0.1,0.6,0c0.8-0.2,1.6-0.4,2.4-0.6c0.3-0.1,0.7-0.1,0.9-0.3c1.6-1.2,3.5-2,4.9-3.5c0.2-0.2,0.5-0.4,0.7-0.6
		c0.3,0,0.5-0.1,0.7-0.1c0.3-0.2,0.6-0.5,0.9-0.7c0.7,0,1.4,0,2.1,0l0-0.1c0.4-0.1,0.9-0.2,1.2-0.3c0.6,0.4,0.9,0.8,0.5,1.7
		c0,0-0.2,0.3-0.5,0.4c-0.9,0.4-1.4,1.1-2.1,1.7c-0.9,0.9-1.7,2-3.2,2.1c-0.1,0-0.2,0.1-0.3,0.2c-0.6,0.5-1.3,0.8-2.1,1
		c-0.7,0.2-1.4,0.7-2.2,0.6c-0.8,0-1.5,0.6-2.3,0.5c-0.5-0.1-1,0-1.5,0.3c-0.5,0.2-1,0.2-1.5-0.2c-1,0.3-2,0.5-2.9,0.8
		c-0.2,0.4-0.2,0.7,0.2,1.1c0.8,0,1.7,0,2.6,0c0.9,0,1.7,0,2.6,0c0.9,0,1.7-0.6,2.7-0.4c0.9,0.2,1.7-0.5,2.6-0.4
		c0.5-0.4,0.9-0.8,1.6-0.8c1.7-1,3.6-1.5,5-2.9c0.3-0.3,0.8-0.4,1.2-0.6c0.4,0,0.7,0.1,1,0.1c0.2,0.2,0.3,0.4,0.4,0.5
		c-0.6,0.6-1.1,1.1-1.6,1.7c-1.5,0.3-2.9,0.6-4.1,1.7c-0.5,0.5-1.2,0.8-1.8,1.1c-0.6,0.3-1.3,0.5-2.1,0.8c-0.5,0-1.2,0-1.8,0
		c-0.7,0.5-1.5,0.3-2.3,0.4c-0.1,0-0.2,0.1-0.4,0.2c0,0.2,0,0.5,0,0.7c0.4,0.2,0.7,0.4,1.1,0.6c1,0.1,2.1,0.1,3.1-0.3
		c2.2,0,4.4,0,6.7,0c-0.1,0.2-0.2,0.3-0.2,0.3c-1.3,0.7-2.7,1.1-4.1,1.6c-0.7,0.3-1.5,0.5-2.3,0.4c-0.6-0.1-1.1,0.3-1.7,0.3
		c-0.2-0.1-0.4-0.2-0.5-0.3c-0.6,0-1.2,0-1.8,0c-0.8,0.6-1.6,0.3-2.5,0.4c-1.2,0-2.4,0.1-3.5,0c-0.9-0.1-1.8,0.3-2.7,0.4
		c-0.6,0-1,0.4-1.4,0.6c-1.4,0.7-2.8,1.6-4.3,2.4c-1.1,0.9-2.2,2-3.4,2.8c-1.3,0.9-2.2,2-3.3,3.1c-0.2,0.2-0.4,0.4-0.6,0.7
		c-1.4,1.3-2.8,2.5-3.9,4.1c-0.3,0.5-0.9,0.9-1.4,1.3c-0.3,0.3-0.6,0.4-0.9,0.7c-1.6,1.7-3.4,3.3-5.3,4.6c-0.2,0.1-0.3,0.3-0.4,0.4
		c-0.3,0.7-0.8,1.2-1.4,1.6c-1.6,1.5-3.1,3.2-4.9,4.5c-1,0.8-2.1,1.6-3.2,2.2c-0.2,0.1-0.5,0.2-0.7,0.4c-0.5,0.3-1.8,0.8-2.3,0.8
		c-0.3,0-0.7,0-0.9,0.1c-0.8,0.4-1.8,0.1-2.6,0.6c-0.3,0.2-0.9,0.2-1.1,0c-0.7-0.4-1.5-0.1-2.1-0.4c-0.8-0.4-1.5-0.2-2.3-0.3
		c-0.2,0-0.4-0.1-0.6-0.1c-0.7-0.2-1.5-0.4-2.2-0.6c-3.1-0.7-5.3-1.6-8.2-3.4c-0.9-0.6-1.9-1.1-3-1.4c-0.4-0.1-0.9-0.3-1.2-0.6
		c-0.6-0.5-1.2-0.7-1.8-1.1c-0.5-0.3-1-0.6-1.5-1c-0.7-0.6-1.5-1.2-2.3-1.7c-1.9-1.1-3.7-2.4-5.3-4c-1-1-2-1.8-3.4-2.2
		c-0.2-0.3-0.4-0.6-0.6-0.9c-0.5,0-1-0.1-1.6-0.1c-1.1-0.6-2.2-1.3-3.2-1.9c-0.9-0.1-1.7,0.1-2.4-0.4c-1.2,0-2.4-0.2-3.5,0
		c-1,0.2-1.9-0.3-2.8-0.1c-0.9-0.6-1.9-0.3-2.8-0.3c-0.9,0.5-1.8,0.9-2.6,1.5c-0.5,0.4-1.3,0.6-1.9,0.9c-0.7,0.3-1.3,0.5-1.8,1.1
		c-1.3,1.3-2.7,2.5-3.5,4.2c-0.1,0.2-0.3,0.4-0.5,0.6c-0.7,0.8-1.1,1.7-1.5,2.7c-0.6,1.7-1.1,3.4-1.6,5.1c-0.2,0.7-0.4,1.4-0.4,2.1
		c0,0.4,0,0.8,0,1.1c-0.2,0.3-0.3,0.6-0.4,0.8c0.2,0.7,0.3,1.2,0.4,1.6c0.1,0.3,0.1,0.6,0.1,1c0.2,0.7,0.5,1.5,0.7,2.2
		c0.3,0.9,1,1.7,1.5,2.5c0.8,1.2,1.5,2.4,2.6,3.4c0.9,1.8,2.5,2.7,4.3,3.5c1.1,0.5,2.2,1,3.4,1.5c0.5,0,1-0.1,1.3,0.1
		c0.7,0.4,1.6,0.1,2.2,0.7c0.9,0,1.7,0,2.6,0c0.3,0,0.7,0,1,0c0.1,0,0.2,0.1,0.4,0.2c-0.1,0.3-0.2,0.7-0.4,1.1
		c0.1,0.3,0.3,0.7,0.4,1c0.1,0.4,0,0.9,0,1.4c0,3.1,0,6.2,0,9.2c0,0.5-0.1,1,0.1,1.3c0.2,0.5,0.2,1,0.2,1.5c0,1.2,0.1,2.4,0,3.5
		c0,1.2,0.3,2.3,0.6,3.4c0.4,1.5,1.2,2.9,1,4.5c0,0.1,0,0.3,0.1,0.4c0.4,0.5,0.3,1,0.3,1.5c-0.1,1.3,0.3,2.4,0.7,3.6
		c0.2,0.7,0.4,1.4,0.6,1.9c0.4,0.6,0.8,1.2,1.2,1.7c0.6,0.7,1.2,1.3,2,1.8c2.1,1.3,4.1,2.7,6.3,3.8c0.3,0.7,0.7,1.3,1.4,1.7
		c0.8-0.1,1.5,0.3,2.2,0.7c0.3,0.5,0.5,1,0.8,1.5c0.3,0.1,0.6,0.2,1,0.3c0.9,0.9,2,1.7,2.4,3.1c0,1.1,0,2.3,0,3.4
		c-1.6,3.4-3.8,6.2-7,8.2c-0.6,0.2-1.3,0.2-1.8,0.6c-0.6,0.4-1.3,0.2-1.9,0.5c-0.7,0.3-1.6,0.5-2.4,0.6c-0.8,0.1-1.7,0.2-2.4,0.5
		c-0.7,0.3-1.5,0-2,0.6c-0.8,0-1.6,0-2.4,0.1c-1.5,0.1-3.1-0.2-4.6,0.4c-0.1,0-0.3,0-0.4,0c-0.8,0-1.5-0.1-2.3-0.3
		c-0.7-0.2-1.6-0.1-2.3-0.1l-0.2-0.1c-0.4-0.3-0.9-0.2-1.3-0.3c-0.4,0-0.8-0.1-1.1-0.2c-1.3-0.4-2.6-0.8-3.9-1.2
		c-0.7-0.2-1.4-0.2-2-0.5c-0.6-0.3-1.3-0.6-2-0.5c-1-0.5-2.1-0.5-3.1-1c-0.6-0.3-1.1-0.6-1.8-0.6c-0.5,0-1.1-0.4-1.5-0.8
		c-0.4-0.4-0.8-0.7-1.1-1c-0.4-0.1-0.7-0.1-0.9-0.2c-1.3-1.3-2.5-2.4-3.7-3.7c0.4-0.8,0.7-1.4,0.9-1.8c0.9-0.8,1.6-1.2,2.1-1.9
		c0.5-0.7,1.1-1.3,1.6-1.9c0.4-0.9,0.9-1.7,1.3-2.6c0-0.9,0.2-1.9-0.3-2.8c-0.1-0.3,0-0.6,0-1c0-0.7,0-1.4,0-2.1
		c-0.7-1.4-1.4-2.8-1.9-3.9c-0.9-1.2-1.6-2.1-2.3-3c-0.2-0.3-0.3-0.6-0.5-0.8c-0.6-0.6-1.2-1.3-1.8-1.8c-0.7-0.6-1.2-1.4-1.8-2
		c-0.8-0.8-1.8-1.4-2.5-2.4c-0.3-0.4-0.6-0.9-0.9-1.2c-0.4-0.4-0.9-0.6-1.2-1c-1-1-2.1-1.8-3.2-2.5c-2.1-1.4-4.2-2.8-6-4.7
		c-0.8-0.8-1.8-1.3-2.7-1.8c-0.4,0.4-1.1,0.1-1.4,0.8c0.1,0.2,0.3,0.4,0.5,0.6c1,1,1.9,2.1,3.2,2.8c1.5,1.5,3.3,2.7,4.8,4.3
		c0.4,0.4,0.8,0.9,1.3,1.2c1.4,0.9,2.8,1.9,4.1,2.8c0.6,0.4,1.1,0.9,1.5,1.5c0.3,0.4,0.7,0.8,1.1,1.1c0.2,0.2,0.4,0.3,0.5,0.5
		c0.6,0.8,1.2,1.7,1.8,2.5c0.6,0.9,1.5,1.6,1.8,2.7c0,0.2,0.2,0.3,0.4,0.4c0.5,0.4,0.8,1,1.1,1.6c0.4,0.8,0.8,1.6,1.2,2.4
		c0.1,0.8-0.1,1.6,0.4,2.3c-0.1,0.7,0.4,1.2,0.4,1.9c0,0.6-0.2,1.3-0.4,1.9c-0.3,0.8-0.6,1.5-0.9,2.2c-0.6,0.4-1.3,0.6-1.5,1.3
		c-0.1,0.5-0.7,0.7-1.1,1c-0.7,0.5-1.4,1-1.8,1.7c-0.5,0.9-1.2,1.3-2,1.7c-0.1,0-0.2,0.1-0.2,0.1c-0.6,0.5-1,0.9-1.2,1.1
		c-0.3,0.7-0.4,1.1-0.7,1.5c-0.5,0.5-0.6,1.3-1.4,1.5c-0.4,0.6-0.8,1.2-1.2,1.8c-0.6,0.9-1,1.8-1.7,2.6c-0.6,0.7-1.1,1.5-1.4,2.3
		c-0.5,1.7-1.5,3.1-1.9,4.9c-0.9,1.6-0.9,3.5-1.4,5.2c0.1,1.2-0.6,2.3-0.4,3.5c0,0.2-0.1,0.4-0.2,0.5c-0.5,1.1-0.6,2.2-0.6,3.4
		c0,0.8,0,1.6,0,2.4c0,0.5,0,0.9-0.2,1.3c-0.1,0.3-0.1,0.6-0.2,0.9c0,0.8,0,1.6,0,2.4c0,0.5,0.1,1.1-0.3,1.5c0,1.1-0.6,2-1.1,3
		c-0.5,0.4-0.9,1-1.5,1.4c-0.6,0.4-1,1.1-1.9,1.3c-2.3,0-4.6,0-7,0c-0.3,0-0.7,0.1-1-0.1c-0.5-0.3-1.1-0.3-1.7-0.3
		c-0.2,0-0.4,0-0.6,0c-0.6-0.4-1.2-0.3-1.9-0.3c-0.8,0-1.6,0.1-2.3-0.4c-0.9,0.1-1.6-0.4-2.5-0.8c-0.4,0-1,0.1-1.5,0
		c-0.6-0.1-1.1-0.4-1.6-0.6c-0.6-0.2-1.2-0.5-1.8-0.6c-1-0.1-2-0.4-3-0.7c-0.7-0.2-1.5-0.4-2.2-0.5c-2.1-0.2-3.7-1.3-5.5-2.2
		c-1-1-2.3-1.7-3.2-2.8c-1.1-1.2-2.3-2.3-3.4-3.5c-0.5-0.5-1-0.9-1.2-1.5c-0.1-0.2-0.3-0.5-0.6-0.5c-0.5-0.2-0.8-0.6-1.2-1
		c-1.2-1.1-2.3-2.3-3.4-3.3c-0.4-0.7-0.6-1.2-1-1.9c-0.8-0.8-1.8-1.7-2.4-2.3c-0.7-1.1-1.1-1.8-1.6-2.7c0-0.4,0-1,0-1.6
		c0-0.5-0.2-1.1,0.1-1.5c0.3-0.6,0.2-1.1,0.4-1.7c1.5-1,2.5-2.5,3.9-3.6c1.3-0.6,2.4-1.4,3.5-2.4c0.8-0.7,1.4-1.5,2.4-2
		c0.4-0.2,0.8-0.6,1-1c0.5-0.9,1.2-1.5,1.9-2.2c0.9-0.9,1.9-1.8,2.9-2.6c1.4-1.2,2.6-2.5,3.6-3.5c1.2-1.9,1.7-3.8,3.1-5.2
		c0.9-2.1,2.2-4.1,2.9-6.3c0.4-1.1,0.9-2.1,1.4-3.4c-0.1-1,0.5-2,0.8-3.1c-0.1-0.2-0.2-0.3-0.3-0.6c0.1-0.2,0.2-0.5,0.4-0.9
		c0-1.4,0-2.9,0-4.4c0-0.4-0.1-0.9,0.1-1.2c0.4-0.7,0.3-1.4,0.3-2.1c0-0.7,0-1.3,0-2c0-0.6,0-1.3,0.3-1.9c0.3-0.6,0.2-1.4,0-2.1
		c-0.2-0.5-0.2-1-0.4-1.6c-0.3-0.3-0.6-0.6-1-0.9c-1,0.2-1.9,0.3-3.1,0.6c-0.8,0.4-1.8,0.9-2.9,1c-1.8,0.3-3.5,0.8-5,1.5
		c-1.3,0.2-2.3,0.4-3.6,0.6c-0.3,0.2-0.7,0.6-1.4,0.7c-1,0.3-2,0.8-3.2,1.3c-0.6,0.6-1.2,1.4-1.6,1.8c-2.3,1.2-4.2,2.3-6.1,3.5
		c-0.6,0.4-1.2,0.8-1.7,1.2c-1.5,1.3-3.2,2.2-4.6,3.6c-0.2,0.2-0.5,0.5-0.7,0.6c-1.5,1-3.1,1.9-4.6,2.8c-0.3,0.2-0.6,0.3-0.9,0.4
		c-0.4-0.2-0.8-0.3-1.1-0.5c-0.3-0.2-0.6-0.5-0.9-0.8c-0.8-0.8-1.7-1.7-2.5-2.5c-1.8-0.7-3.3-1.9-4.6-3.3c-0.4-1.1-1.6-1.7-2.2-2.7
		c-0.6-1.1-1.7-1.8-2.5-2.7c-0.3-0.3-0.6-0.7-1-1c-1.3-1.2-2.3-2.6-3.1-4.2c-0.7-1.4-2.4-1.8-3.2-3.1c-1.1-0.6-2.1-1.5-3.1-2.4
		c-0.6-0.1-0.9-0.7-1.4-1.1c-0.5-0.4-1.1-0.7-1.5-1.2c-0.9-0.9-1.8-1.9-3.1-2.5c-0.9,0-1.8-0.7-2.9-0.5c-1-0.4-2.1-0.5-3.1-0.4
		c-0.9,0.7-1.5,1.4-1.8,2.4c0,0.2,0,0.5,0,0.7c0,0.3,0.1,0.5,0.2,0.7c0.2,0.8,0.4,1.6,0.6,2.4c0.1,0.8,0.1,1.5,0.3,2.3
		c0.2,0.7,0.1,1.6,0.1,2.3c0,0.8,0.5,1.5,0.4,2.3c-0.1,0.6,0,1.2,0,1.8c0,0.7-0.1,1.4,0.1,1.9c0.2,0.6,0.2,1.1,0.3,1.7
		c0.1,0.6,0.4,1.2,0.6,1.8c0.9,2.6,0.9,2.6,0.9,5.3l0,0.2c0,0.6-0.1,1.2,0.3,1.7c0.2,0.2,0.1,0.6,0.1,1c-0.2,1.4,0.6,2.7,0.4,4
		c0.5,0.8,0.3,1.6,0.4,2.5c0,0.2-0.1,0.4,0,0.6c0.5,0.9,0.2,1.9,0.4,2.9c0.1,0.1,0.2,0.2,0.2,0.3c0.3,1.2,0.9,2.3,1.6,3.3
		c0.7,1,1.4,2,2,3.1c0.7,1.3,1.4,2.6,2.1,3.9c0.8,1.4,2.1,2.5,3,3.8c0.9,0.4,1.4,1.2,2.1,1.8c1.7,1.5,2.9,3.5,4.4,4.8
		c0.5,0.8,0.8,1.4,1.2,1.9c0.7,1.1,1.1,2.2,1.1,3.4c0,0.4,0.1,0.8,0.2,1.1c0.4,1.4,0.5,2.9,1.4,4.2c0,0.6,0,1.1,0,1.6
		c0.3,0.6,0.6,1.1,0.7,1.5c0.1,0.7,0.5,1.4,0.9,1.9c0.7,1,1,2.1,1.4,3.2c0.2,0.5,0.3,1.1,0.5,1.7c0.6,1.8,1.1,3.5,1.7,5.3
		c0.4,1.3,0.9,2.7,1.3,4c0.4,1.4,1.2,2.6,1.4,4c0,0.1,0.1,0.2,0.2,0.3c0.8,1.1,1.6,2.2,2,3.5c1.2,1.4,1.7,3.2,2.5,4.7
		c0,0.4,0,0.7,0,0.8c0.6,1,1.1,1.7,1.6,2.5c1.1,1.5,2,3.2,3.5,4.4c0.2,0.2,0.5,0.4,0.7,0.7c0.3,0.8,1,1.3,1.6,1.9
		c1.4,1.5,3.1,2.7,4.7,4c1.6,1.4,3.4,2.5,5.1,3.8c0.7,0.5,1.3,1,1.9,1.6c0.4,0.4,0.8,0.9,1.2,1.3c0.8,0.4,1.5,0.8,2.2,1.3
		c0.5,0.3,1,0.6,1.5,0.9c1.3,0.8,2.7,1.5,4,2.4c0.9,0.6,1.8,1.1,2.7,1.5c1,0.4,2,0.9,2.9,1.5c0.4,0.2,0.7,0.6,1.1,0.7
		c1.1,0.4,2,1.1,3.2,1.4c1.2,0.3,2.4,0.6,3.5,1c0.6,0.3,1.3,0.6,2,0.8c1.7,0.3,3.1,1.2,4.8,1.3c2.4,0.9,4.8,1.7,7.3,2.3
		c0.5,0.5,1.2,0.2,1.7,0.5c0.6,0.3,1.1,0.2,1.7,0.3c0.6,0.1,1.1,0.3,1.7,0.4c0.6,0.1,1.3,0,2,0c0.2,0,0.4,0,0.6,0.1
		c0.5,0.3,1,0.2,1.5,0.3c0.9,0,1.7,0,2.6,0c0.3,0,0.7-0.1,1,0.1c0.6,0.4,1.3,0.3,1.9,0.3c1.2,0,2.5,0,3.7,0c0.4,0,0.8-0.1,1.2,0
		c1.6,0.6,3.2,0.2,4.8,0.3c0.3,0,0.6,0.1,0.8,0c1-0.6,2-0.3,3.1-0.3c1.6,0,3.1,0,4.7,0c0.3,0,0.7,0.1,1-0.1c0.7-0.4,1.4-0.3,2.1-0.3
		c0.3,0,0.6,0,0.8-0.1c0.5-0.3,1-0.2,1.5-0.3c0.3,0,0.6,0.1,0.8-0.1c0.5-0.3,1-0.4,1.5-0.3c0.6,0.1,1.1-0.4,1.7-0.4
		c0.6,0,1.2,0,1.8,0c0.6-0.1,1.1-0.4,1.7-0.3c0.7,0,1.2-0.5,1.9-0.4c0.7,0.1,1.3-0.3,1.9-0.5c0.7-0.2,1.4-0.2,2-0.5
		c0.8-0.4,1.6-0.9,2.3-1.3c1.4-0.4,2.7-0.6,3.9-1.1c1.4-0.6,3-0.9,4.3-1.7c2-0.5,3.6-1.8,5.4-2.5c1-0.9,2.2-1.3,3.3-1.8
		c0.4,0,0.7,0,1-0.1c0.5-0.4,1.1-0.6,1.6-0.9c0.6-0.3,1.2-0.7,1.8-1.1c0.7-0.4,1.5-0.7,2.2-1.2c1.7-1.2,3.3-2.4,4.9-3.8
		c1-0.9,2-1.8,3.2-2.2c1.1-0.9,2.1-1.5,2.9-2.4c1.1-1.2,2.5-2,3.7-3.2c0.7-0.2,1-0.9,1.5-1.4c0.7-0.6,1.3-1.2,2-1.8
		c0.7-0.6,1.4-1.1,2.1-1.7c0.8-0.7,1.5-1.6,2.2-2.5c1.6-2,3-4.1,4.4-6.1c0.9-1.3,1.9-2.6,2.5-4.1c0.5-1.1,0.9-2.1,1.3-3.2
		c0.4-1,0.9-2,1.6-2.9c-0.2-0.9,0.4-1.6,0.7-2.3c0.1-0.6-0.1-1.3,0.4-1.9c-0.1-1,0.5-1.9,0.5-2.9c0-0.9,0.5-1.9,0.3-2.8
		c0.2-0.4,0.3-0.6,0.4-0.9c-0.2-0.5-0.4-1-0.4-1.4c0-0.7-0.2-1.3-0.4-1.9c-0.3-0.7-0.4-1.5-0.4-2.2c-0.4-0.7-0.7-1.3-1-2
		c-0.2-0.3-0.3-0.7-0.4-1.1c-0.1-0.6-0.2-1.3-0.4-1.9c-0.2-0.9-0.5-1.7-0.6-2.6c-0.1-0.5-1.5-4.2-1.7-4.5c-0.6-0.6-0.8-1.3-1.2-2
		c-0.4-0.7-0.8-1.5-1.4-2.1c-0.9-1-1.5-2.1-2.1-3.2c-0.6-1.1-1.3-2.2-2.3-3.1c-1.2-1.1-2.3-2.3-3.5-3.5c-1.2-1.2-2.6-2-4.1-2.6
		c-0.4-0.1-0.7-0.3-1-0.5c-1-0.5-1.9-1.3-3-1.6c-0.9-0.3-1.6-0.8-2.4-1.2c-0.8-0.4-1.8-0.4-2.3-1.3c0-0.1-0.2-0.1-0.3-0.1
		c-0.4-0.1-0.8-0.2-1.1-0.4c-1.4-1.1-3.1-1.7-4.8-2.6c-0.4-0.4-0.9-1-1.3-1.5c-1.9-0.8-3.6-1.6-5.3-2.4l0.1-0.1
		c-0.7-0.6-1.4-1.2-1.8-1.6c-0.3-0.7-0.4-1.1-0.6-1.5c-0.8-1.4-1.4-2.9-1.8-4.5c-0.4-1.5-1-2.9-0.9-4.5c0-0.2,0.1-0.4,0-0.6
		c-0.5-0.8-0.3-1.6-0.3-2.5c0-0.5,0.1-1-0.1-1.4c-0.5-1-0.3-2.1-0.3-3.1c0-0.5,0.1-1-0.1-1.4c-0.4-0.8-0.3-1.5-0.3-2.3
		c0-1.2,0-2.5,0-3.7c0-0.3,0.1-0.7,0-1c-0.5-0.9-0.3-1.9-0.3-2.9c-0.1-0.7,0-1.4-0.3-2.1c-0.2-0.5-0.1-1.2-0.1-1.7
		c0.6-0.8,0.2-1.6,0.4-2.4c0.2-0.3,0.3-0.6,0.4-0.8c0.8-0.6,1.6-1.3,2.4-1.7c1-0.5,1.6-1.4,2.4-2c1.2-1,1.9-2.3,2.7-3.6
		c0.4-0.6,0.6-1.4,0.7-2.2c0-0.1,0.2-0.2,0.2-0.3c0.3-1,0.7-2.1,0.9-3.1c0.3-1.4-0.1-3.3-0.5-5c-0.5-1.6-1.1-3.2-1.9-4.7
		c-1.1-1.3-2.5-2.2-3.4-3.8c-0.9-0.4-1.9-0.8-2.8-1.2c-0.9-0.4-1.9-0.9-2.7-1.3c-1.6,0-3.1,0.1-4.6,0c-0.8-0.1-1.5,0.5-2.3,0.5
		c-0.4,0-0.7,0.2-1.1,0.4c-0.6,0.3-1.3,0.7-1.6,0.8c-1,0.8-1.7,1.4-2.5,2c-0.4,0.8-1,1.7-1.5,2.6c-0.8,1.5-1.4,3.2-1.4,4.7
		c0,1,0,2.1,0,3.1c0,0.3-0.1,0.7,0.1,1c0.5,0.9,0.4,2,0.9,3c0.4,0.9,0.8,1.9,1.2,2.8c0.5,0.5,0.9,0.9,1.3,1.3c1.5,1.3,2,1.6,4.1,1.9
		c0.3,0,0.6,0.2,0.9,0.3c0.9,0.3,1.8,0.6,2.8,0.6c1,0.5,2,0.2,3,0.3c0.9-0.7,1.6-1.4,2.5-1.9c1-0.6,1.6-1.5,2.5-2.2
		c0.6-0.5,0.9-1.1,1.2-1.8c0.3-0.9,0.4-1.9,0.8-2.8c0.1-0.3,0-0.8-0.1-1.1c-0.5-1.2-0.5-2.7-1.3-3.8c-0.1-0.1,0-0.4-0.1-0.6
		c-0.3-1.4-0.9-2.6-2.1-3.4c-0.6-0.4-1.1-0.7-1.5-1.2c-0.5-0.6-1.2-1-2-1.3c-0.3,0-0.7,0-1.1,0c-0.4-0.1-0.9-0.2-1.3-0.3
		c-0.2,0.1-0.3,0.2-0.5,0.3c-1.2,0.4-2.5,1.2-3.1,2.2c-0.9,1.3-1.7,2.7-2.4,3.8c-0.4,2.4,0.3,4.2,1.1,5.5c1.1,1.1,1.8,2,2.6,2.8
		c0.7,0,1.4,0,2,0c0.6,0,1.3,0,1.9,0c0.6-0.6,1.2-1.2,1.7-1.7c0.1-0.8,0.6-1.5,0.5-2.3c-0.2-0.8-0.3-1.5-0.6-2.2
		c-0.3-0.7-0.7-1.4-1.5-1.7c-0.3-0.9-1.3-0.7-2.1-1.2c-0.2,0.2-0.4,0.5-0.6,0.7c0,0.5,0,0.8,0,1.1c0.5,0.9,1.4,1.4,2.2,1.9
		c0.2,0.4,0.3,0.7,0.4,1c-0.3,1-1,1.6-1.7,2.2c-0.3,0-0.5,0-0.8,0c-0.2,0-0.4,0-0.6,0c-1.1-1-1.1-1-2.2-4c0-0.8,0-1.6,0-2.2
		c0.4-1.2,1.2-1.9,1.9-2.6c0.5-0.5,1.1-0.7,1.6-1c0.2,0,0.4-0.1,0.6,0c0.7,0.3,1.4,0.6,2.1,0.9c0.6,0.6,1.1,1.1,1.7,1.7
		c0.5,0.6,1,1.2,1.4,1.8c1,1.4,1.4,3,1.1,4.8c-0.4,0.6-0.2,1.3-0.3,1.9c-0.5,0.9-0.9,1.8-1.4,2.7c-0.4,0.4-0.9,0.9-1.3,1.3
		c-0.3,0.2-0.6,0.4-0.9,0.5c-0.9,0.3-1.8,0.7-2.8,0.5c-0.4-0.1-0.9-0.3-1.3-0.4c-1.3-0.3-2.6-0.6-3.8-1.3c-0.3-0.2-0.6-0.3-1-0.5
		c-0.8-0.8-1.7-1.7-2.6-2.7c-0.3-0.5-0.6-1.1-0.9-1.9c0-1.1,0.1-2.2,0-3.3c-0.1-1.1,0.3-2.2,0.4-3.3c0,0,0,0,0,0c0,0,0,0.1,0,0.1
		c1-1.8,1.8-3.4,2.7-5c0.6-0.3,1.2-0.6,1.7-0.9c1.2-0.9,2.4-1.7,4-2c1.3,0,2.6,0,3.8,0c0.9,0.5,1.6,1,2.5,1.5
		c0.1,0.1,0.2,0.3,0.3,0.5c0.2,0.2,0.4,0.3,0.6,0.4c0.7,0.5,1.4,1,2,1.6c1.1,1,1.9,2.3,2.9,3.4c0.3,0.3,0.7,0.7,0.7,1.1
		c0.1,0.8,0.7,1.4,0.8,2.1c0,1.9,0,3.7,0,5.4c-0.2,0.6-0.3,1.2-0.6,1.6c-0.7,0.8-1,1.8-1.5,2.8c-1.3,1.2-2.4,2.7-4,3.6
		c-0.7,0.9-1.8,1-2.7,1.4c-0.4,0.2-0.9,0-1.4,0.1c-0.5,0.1-1,0.3-1.5,0.4c-1.6,0.2-3.2-0.2-4.8-0.6c-0.6-0.1-1.1-0.3-1.7-0.5
		c-0.5-0.2-1.1-0.4-1.6-0.6c-1.2-0.5-2.5-1.1-3.4-2.1c-0.8-0.9-1.6-1.9-2.3-2.9c-1.2-1.8-2.2-3.7-3.2-5.5c0.1-0.6,0-1.3,0.2-1.8
		c0.2-0.5,0.2-1,0.2-1.5c0-0.9,0-1.7,0-2.6c0-0.3-0.1-0.7,0.1-1c0.4-0.6,0.2-1.3,0.3-1.9c1.1-1.9,2.5-3.6,3.1-5.4
		c1.7-2.4,3.9-3.5,5.5-4.9c1-0.4,1.7-0.7,2.3-1c0.9,0,1.7,0,2.5,0c0.7,0.5,1.5,0.3,2.3,0.4c0.3,0,0.6-0.1,0.8,0
		c0.7,0.4,1.5,0.1,2.1,0.5c0.7,0.4,1.5,0.1,2,0.6c1.2,0.1,2.4,0.7,3.6,0.5c0.2,0,0.4,0,0.5,0c1.7,0.9,3.1,2.2,4.4,3.4
		c1.1,0.5,2.1,1,3,1.7c1.1,0.8,2.2,1.5,3.3,2.3c0.7,0.5,1.4,1,2,1.6c1.3,1.3,3,2.1,4.6,2.8c2,0.8,4,1.5,5.9,2.4
		c0.4,0.2,0.8,0.5,1.3,0.4c0.6,0.6,1.5,0.3,2.2,0.7c1,0.6,2.1,1.1,3.2,1.6c1.2-0.1,2.3,0.6,3.6,0.4c0.7,0.5,1.5,0.4,2.3,0.4
		c0.2,0,0.4,0,0.6,0c0.7,0.5,1.4,0.3,2.1,0.3c0.7,0,1.3-0.1,2,0c1,0.2,1.9-0.3,2.9-0.5c0.8-0.2,1.6-0.5,2.2-1.1
		c0.4-0.4,0.9-0.2,1.2-0.5c0.2-0.3,0.3-0.7,0.6-0.8c1.4-0.9,2.6-1.9,3.8-3c0.3-0.3,0.6-0.4,1-0.6c0.6-1.3,1.8-2.1,2.7-3.1
		c0.9-0.3,1.4-1.1,2.1-1.7c1.9-1.8,3.7-3.7,5.6-5.6c0.4-0.4,0.7-0.8,1.2-1.1c1.1-0.6,1.9-1.6,2.6-2.6c0.6-0.8,1.4-1.6,2.2-2.2
		c1-0.7,1.9-1.6,2.7-2.6c0.5-0.6,1-1.2,1.6-1.7c1.7-1.2,3.7-1.9,5.2-3.3c0.4-0.4,1-0.7,1.6-0.7c0.9,0,1.7-0.6,2.7-0.8
		c2.5,0,5,0,7.6,0c0.4,0,0.9,0,1.3-0.2c0.3-0.1,0.6-0.1,0.9-0.2c0.5,0,1,0,1.5-0.3c0.4-0.3,1-0.2,1.5-0.3c1.6-0.5,3.2-1.1,4.6-2
		c0.7-0.6,1.3-1.3,1.5-2.2c-0.2-0.9-1.3-1-1.8-1.7c1-0.7,2-1.4,3-2c0.5-0.7,0.9-1.5,1.2-2c0-0.8,0-1.4,0-2
		C337.9,86.1,337.5,85.8,337.1,85.5z M194.5,64.6c-0.8,0.4-2,0.7-3,1.2l-2.9-0.2l-1.2-0.7c0.9-0.1,2.4-0.5,2.5-0.5
		c0.6-0.1,1.3-0.2,1.8-0.5c0.6-0.3,1.3-0.5,2.2-0.8c0.5-0.2,1.5-0.7,1.3-1.1l0.1-0.2c-0.1-0.4-1.3-0.3-1.5-0.3
		c-0.7,0.1-1.2,0.2-1.3,0.2c-0.9,0.2-1.3,0.3-1.7,0.5c-0.4,0.1-0.7,0.4-1,0.5c-0.4,0.2-0.7,0.5-1.1,0.6l-1.7,1l0.3-1.2
		c0.5-0.7,1.3-1.5,1.9-2.1c1.1-0.2,2.3-0.5,3.4-0.7c0.5,0.2,1.8,0.4,2.4,0.7l0.9,0.8l0.1,1.1C195.9,63.6,194.6,64.1,194.5,64.6z
		 M197.8,60.9c-0.5-0.1-0.9-0.4-1.3-0.7c-0.4-0.3-0.9-0.6-1.4-0.7c-0.6-0.1-0.9-0.5-1.4-0.8c-1.2,0-2.4,0-3.7,0
		c-0.5,0.3-1,0.7-1.6,1c-0.6,0.3-1.1,0.7-1.5,1.2c0,0.3-0.1,0.5-0.1,0.8c-0.9,0.7-1.3,1.8-2,3c-0.3-0.7-0.5-1.1-0.6-1.6
		c-0.2-1.1,0.2-2,0.7-2.9c0.2-0.4,0.5-0.8,0.6-1c0.8-0.7,1.5-1.2,2.4-1.9c0.2-0.1,0.7-0.2,1.1-0.4c0.9-0.5,2-0.7,2.9-0.8
		c0.9-0.2,1.7-0.4,2.6-0.7c0.2-0.1,0.5-0.1,0.7-0.2c1.2,1.7,2.1,3.5,2.7,5.4C197.9,60.6,197.8,60.8,197.8,60.9z M99.5,217.8
		c-0.2-0.5-0.4-1.1-0.7-1.7c0.2-1.2-0.5-2.4-0.5-3.7c-0.4-0.8-0.5-1.7-1.1-2.5c-0.2-0.3-0.3-0.6-0.6-0.8c-0.5-0.5-1.1-0.9-1.5-1.5
		c-0.4-0.5-0.9-0.9-1.4-1.4c-0.6-0.7-1.2-1.5-1.9-2.2c-0.6-0.7-1.3-1.3-1.9-2c-0.6-0.7-1.1-1.6-1.7-2.4c-0.8-1.1-1.7-2.3-2.6-3.4
		c-0.6-0.9-1.4-1.7-1.9-2.7c-1-2-2.2-4-2.9-6.1c-0.3-0.8-0.7-1.7-1-2.5c-0.2-0.8-0.6-1.5-0.6-2.4c0-0.4-0.2-0.8-0.4-1.3
		c0.1-0.3,0.2-0.5,0.4-0.8c-0.1-0.2-0.2-0.5-0.4-0.9c0-0.9,0-1.9,0-2.9c0-0.8,0.2-1.7-0.3-2.5c-0.2-0.2-0.1-0.6-0.1-1c0-1,0-2,0-2.9
		c0-0.3,0.1-0.7,0-1c-0.4-0.7-0.3-1.4-0.3-2.1c0-0.6,0.1-1.2-0.1-1.8c-0.4-1.2-0.4-2.4-0.9-3.5c-0.5-1-0.8-2.1-0.6-3.2
		c0.2-1.3-0.5-2.4-0.4-3.6c-0.3-0.4-0.4-0.8-0.3-1.3c0-0.8,0-1.6,0.1-2.5c1,0,1.8,0,2.2,0c3.9,0.7,6.6,2.6,8.7,5.3
		c0.6,0.3,1,0.5,1.6,0.8c0.9,0.9,2,1.7,2.4,3.1c0.3,0.2,0.8,0.4,0.9,0.7c0.5,1,1.4,1.7,2.2,2.5c0.9,0.9,1.7,1.8,2.3,2.9
		c0.2,0.4,0.5,0.8,0.8,1.1c0.9,0.9,1.7,2,2.4,3c0.2,0.3,0.4,0.7,0.8,0.9c1.1,0.6,1.9,1.6,2.6,2.3c2.6,1.6,5,2.9,6.9,4.9
		c0.6,0.2,1.1,0.3,1.7,0.5c0.7-0.2,1.4-0.6,2.2-0.4c1.1-0.8,2-1.5,3.1-2.1c0.9-0.5,1.7-1.2,2.5-1.8c1-0.7,2-1.5,3.1-2
		c1.3-0.6,2.4-1.5,3.6-2.3c1.2-0.8,2.2-1.8,3.2-2.8c0.5-0.5,1.1-0.9,1.7-1.3c1.6-0.9,3.2-2,4.9-2.7c0.2-0.1,0.5-0.3,0.7-0.3
		c0.8,0,1.5-0.4,2.2-0.6c0.9-0.3,1.8-0.6,2.8-0.6c0.5,0,1-0.3,1.5-0.3c0.4-0.1,0.9-0.1,1.3-0.2c0.9-0.2,1.8-0.3,2.6-0.5
		c0.5-0.1,1,0,1.6,0c0.4,0,0.6-0.6,1.1-0.2c0.1,0.6,0,1.2,0,1.9c0,0.6,0,1.1-0.3,1.7c-0.2,0.3-0.1,0.8-0.1,1.2c0,1.5,0,3,0,4.5
		c0,0.9,0.2,1.8-0.4,2.7c0.1,1.6-0.7,3-0.4,4.7c-0.4,0.6-0.8,1.3-1.2,2c0,1-0.4,2-0.9,2.8c-0.7,1.3-1.3,2.7-2.1,3.9
		c-0.8,1.2-1.5,2.6-2.3,3.8c-0.7,1.1-1.4,2.3-2.2,3.4c-0.7,1-1.5,1.8-2.4,2.5c-0.5,0.3-1,0.7-1.3,1.2c-0.6,1.1-1.5,1.8-2.3,2.6
		c-0.6,0.6-1.2,1.2-1.8,1.8c-1.1,1.2-2.5,2.1-4.2,2.9c-0.4,0.5-1.1,1.1-1.7,1.8c-1,1.1-2,2-3.3,2.7c-0.4,0.2-0.7,0.6-1,0.9
		c-0.6,0.6-1.2,1.2-1.8,1.8c-0.5-0.1-1-0.3-1.5-0.4c-0.2-0.1-0.5-0.3-0.7-0.3c-0.8,0-1.5-0.3-2.3-0.4c-0.8-0.1-1.5,0.3-2.3,0.3
		c-1.3,0.1-2.4,0.6-3.5,1.1c-0.3,0.2-0.6,0.3-0.8,0.5c-2,1.4-4.1,2.7-6.5,3.7c-0.5,0.5-1.1,1.1-1.7,1.8c-0.2,0.4-0.5,0.9-0.7,1.4
		C99.3,219.2,99.7,218.4,99.5,217.8z M103.1,226.7c0,0.1-0.1,0.2-0.2,0.2c-0.9-1.3-0.9-3-2.1-4c0-0.5,0-1,0-1.5
		c0.9-0.9,1.6-1.9,2.6-2.3c0.8-0.9,1.5-1.7,1.9-2.2c1.3-0.8,2.3-1.4,3.3-1.9c1.2-0.6,2.4-1.3,3.8-1.2c1.9-0.7,3.9-0.3,5.8-0.4
		c0.7,0.3,1.5,0.4,2.3,0.4c0.3,0.6,0.9,1,0.6,1.8c-0.2,0-0.4,0.1-0.7,0.1c-0.7,0-1.4,0.2-1.9-0.1c-1-0.5-2.1-0.3-3.1-0.3
		c-0.8,0-1.6,0-2.4,0c-0.5,0.3-1,0.7-1.6,0.7c-1.1,0.1-1.8,1-2.7,1.4c-1.5,1.4-3,2.9-3.9,4.8C104,223.7,103.5,225.2,103.1,226.7z
		 M110.6,240.5c0,1.5-0.3,2.8-1,4.6c-1-1.9-1.9-3.9-2.9-5.7c-0.4-0.7-0.3-1.4-0.6-2c-0.8-2.2-1.6-4.3-2.3-6.5
		c-0.2-0.6-0.2-1.1-0.2-1.8c0.9-2,1.9-4.1,2.7-5.9c0.5-0.7,1-0.8,1.3-1.3c0.3-0.6,0.9-0.9,1.3-1.4c0.4-0.4,0.7-0.9,1-1.4
		c0.4-0.6,1.1-0.9,1.8-1.2c1.2,0,2.5,0,3.8,0c0.6,0,1.3-0.1,1.9,0.3l0.2,0c0.8,0.1,1.7,0.1,2.5,0.4c0.6,0.2,1.3,0,2,0
		c1.1,1.1,2.3,2,3,3.4c0.6,1,1.4,1.8,2.2,2.6c-0.1,0.4-0.4,0.3-0.6,0.3c-0.8,0-1.6,0-2.4,0c-0.8,0-1.5,0.2-2.3,0.4
		c-0.7,0.2-1.3,0.7-2,0.7c-0.7,0.1-1.3,0.6-2.1,0.4c-1,0.5-1.9,1.1-2.8,1.8c-0.2,0.2-0.5,0.5-0.7,0.8c-0.2,1.7-1.1,2.9-2,4
		c-0.1,0.5-0.1,1-0.3,1.5c-0.6,1.4-1.1,2.9-1.6,4.3C110.5,239.3,110.6,239.9,110.6,240.5z M116.9,247.6c-0.2,0.3-0.1,0.8-0.1,1.2
		c0,0.5,0,0.9-0.2,1.3c-0.1,0.3-0.1,0.6-0.1,0.9c0,0.8,0,1.6,0,2.4c-0.2,0.4-0.4,0.8-0.6,1.2c-0.2-0.1-0.4-0.1-0.5-0.2
		c-0.4-0.5-0.8-1-1.1-1.6c-0.8-1.6-1.8-3-2.5-4.6c-0.2-0.6-0.6-1.1-1-1.7c0.4-0.3,0.8-0.7,1.3-1c0-0.9,0.3-1.8,0.4-2.7
		c0.1-0.8,0.1-1.7,0-2.5c0-0.5,0.2-0.9,0.3-1.3c0.2-0.7,0.4-1.5,0.6-2.2c0.2-0.7,0.6-1.4,0.8-2.2c0.3-1.1,0.9-2,1.6-2.8
		c0.6-0.8,1.3-1.6,2-2.7c0.9-0.6,2-1.3,3.1-2c1-0.1,1.9,0.1,2.6-0.4c1.4,0.2,2.6-0.6,4-0.5c0.3,0,0.6-0.1,0.9-0.2
		c2.9,1.6,5.4,3.7,7.4,6.8c-1.3-0.3-1.3-0.3-2.2,0.1c-1-0.3-2,0.2-3,0.4c-0.9,0.2-1.8,0.3-2.6,0.4c-0.2,0.1-0.4,0.3-0.6,0.3
		c-0.8,0.2-1.5,0.4-2.2,0.8c-1.4,0.9-2.8,1.7-3.8,3c-0.4,0.4-0.7,1-1,1.4c-0.4,0.4-0.9,0.8-1.2,1.1c-0.8,1.6-1.5,3.2-2.1,4.5
		C117.2,245.9,117.4,246.8,116.9,247.6z M126.4,265.3c-1-0.6-2.1-1.1-2.9-1.9c-0.9-0.9-1.7-1.7-2.8-2.5c-0.8-0.5-1.4-1.3-2-1.9
		c-0.3-1.2-0.6-2.2-1-3.3c0.1-0.4,0.3-0.8,0.3-1.3c0.1-1,0-2,0-2.9c0-1.1-0.1-2.2,0.3-3.3c0.1-0.3,0-0.8,0-1.1
		c0.5-1.1,1.1-2,1.4-3.1c0.1-0.4,0.2-0.8,0.4-1.1c0.7-1.2,1.4-2.3,2.2-3.4c0.8-1.1,2.4-2.2,3.8-2.5c0.9-0.2,1.7-0.7,2.3-1.2
		c0.8-0.2,1.5,0,2.2-0.3c0.6-0.2,1.3,0,1.9-0.3c0.7-0.3,1.4-0.2,2-0.5c0.9-0.4,1.8,0,2.7-0.3c0.3,0.3,0.6,0.5,1,0.7
		c0.3,0.2,0.7,0.4,1,0.5c0.4,0.2,0.7,0.4,0.7,0.9c-0.8,0.5-1.5,1.3-2.3,1.6c-1.1,0.4-2.2,1.1-3.4,1.4c-0.7,0.2-1.3,0.5-1.8,1.1
		c-0.9,0.9-1.8,1.7-2.6,2.7c-0.6,0.7-1.2,1.5-2,2.5c-0.2,0.5-0.6,1.2-0.9,2c-0.3,0.7-0.2,1.5-0.6,2.2c-0.2,0.4,0,0.9-0.1,1.3
		c-0.7,2.2-0.3,4.5-0.4,6.8c0,0.7-0.2,1.4,0.3,2.1c0.1,0.1,0.1,0.4,0.1,0.6c0,0.7,0.1,1.3,0.3,1.9c0.2,0.5,0.2,1.1,0.4,1.9
		C126.8,264.9,126.6,265.1,126.4,265.3z M153.5,281.4c-0.7-0.2-1.4-0.5-2.2-0.8c-0.7-0.2-1.3-0.6-2-0.7c-1.2-0.2-2.2-0.6-3.3-1.2
		c-0.5-0.2-1-0.4-1.7-0.7c-0.5-0.4-1.1-1-2-1.4c-1.2-0.6-2.3-1.5-3.1-2.5c-3.2-1.8-6.2-3.7-9.3-5.7c-0.4-0.8-0.9-1.7-1.4-2.7
		c0-0.6,0-1.2,0-1.8c-0.4-1.2-1-2.4-0.8-3.6c-0.5-1-0.4-2.2-0.4-3.3c0-0.8-0.2-1.6,0.2-2.3c0.4-0.7,0.1-1.5,0.5-2.3
		c0.4-0.6,0-1.5,0.5-2.2c0-1.4,0.6-2.6,1.2-3.8c0.1-0.1,0.1-0.2,0.2-0.3c0.5-0.7,1.2-1.2,1.6-2c0.4-0.8,1.4-1.2,2.2-1.6
		c1.2-0.7,2.5-1.4,3.6-2.2c0.9-0.7,2-1.1,3-1.3c0.9-0.2,1.6-0.5,2.5-0.9c1.6,0.3,3.2,0.9,4.9,1.4c0.2,0,0.3,0.2,0.5,0.4
		c-0.4,0.5-0.8,1-1.4,1.4c-0.6,0.4-1.4,0.8-1.9,1.3c-0.5,0.6-1,1.2-1.5,1.8c-0.8,1.1-1.5,2.2-2.3,3.3c-0.9,1.2-1.6,2.5-2,4
		c-0.1,0.5-0.5,0.9-0.7,1.5c0,0.9,0,1.8,0,2.7c0,0.5,0,0.9-0.2,1.3c-0.1,0.3-0.1,0.6-0.1,0.9c0,0.7,0,1.4,0.3,2.1
		c0.3,0.6,0,1.4,0.3,2.1c0.3,0.8,0.1,1.7,0.5,2.4c0.1,1.8,0.9,3.3,1.5,5c0.4,1.2,1,2.4,1.4,3.6c0.2,0.6,0.5,1.1,0.8,1.6
		c0.2,0.3,0.5,0.7,0.8,0.9c0.8,0.4,1.3,1.1,2.1,1.7c0.2,0,0.5,0.1,0.8,0.2c0.2,0.2,0.5,0.4,0.8,0.6c0.2-0.2,0.4-0.3,0.6-0.5
		c0-0.3,0-0.7,0-1.1c-0.2-0.4-0.5-0.9-0.9-1.3c-1.1-1.1-1.9-2.4-2.4-3.9c-0.4-1.1-1-2.1-1-3.3c-0.7-1.2-1-2.7-1.6-3.9
		c-0.3-0.8-0.6-1.5-0.8-2.4c-0.1-0.8-0.5-1.6-0.4-2.5c0-0.2,0.1-0.4,0-0.6c-0.6-1-0.3-2.2-0.4-3.3c0-0.4-0.1-0.9,0.1-1.2
		c0.4-0.8,0.3-1.7,0.7-2.4c0.1-0.2,0.3-0.5,0.3-0.7c0-1.1,0.6-1.8,1.2-2.6c0.6-0.8,1.1-1.7,1.7-2.6c0.4-0.6,0.9-1.1,1.5-1.5
		c0.4-0.2,0.8-0.5,1-0.9c0.3-0.5,0.7-0.7,1.1-1c0.5-0.4,1.2-0.6,1.6-1c0.4-0.5,0.8-0.8,1.5-1c1,0.4,2.3,0.4,3.4,1.2
		c1.2-0.2,2.3,0.3,3.4,0.5c0.3,0,0.6,0.4,1,0.5c-0.8,1.3-1.5,1.9-2.9,2.9c-1.1,0.8-1.8,2-3.1,2.6c-2.2,3.2-3.5,6.8-5.1,10.5
		c0,1,0,2.2,0,3.4c0,0.6-0.1,1.3,0.3,1.9c0.1,0.1,0.1,0.3,0.1,0.4c-0.1,1.8,0.6,3.5,1,5.3c0,0.2,0.2,0.4,0.2,0.6
		c0,1.2,0.5,2.2,0.9,3.3c0.7,2.1,1.9,4,2.8,5.9c0.3,0.6,0.6,1.1,0.9,1.6C154.1,281.4,153.8,281.4,153.5,281.4z M167.5,286
		c-0.2,0.1-0.4,0.1-0.5,0.1c-1.6-0.9-3.4-1.3-5.1-1.9c-1.2-0.4-2.2-1.2-3.4-1.2c-0.6,0-1-0.3-1.5-0.6c-0.1-0.4-0.3-0.9-0.5-1.4
		c-0.4-0.9-0.7-1.8-1.4-2.5c-0.4-0.4-0.6-0.8-0.8-1.3c-1.1-2.1-2-4.2-2.8-6.6c-0.1-0.7,0.1-1.7-0.3-2.6c-0.2-0.4,0-1-0.1-1.6
		c-0.1-0.9,0.2-1.8-0.4-2.7c0-1,0-2.1,0-3.1c-0.2-0.4-0.3-0.7-0.4-0.9c0-0.2,0-0.3,0-0.5c0.1-0.4,0.3-0.7,0.3-1.1
		c0.3-1.6,1.1-3,1.7-4.5c0.3-0.8,0.9-1.4,1.5-2c1.7-1.6,3.1-3.6,4.7-5.2c1.2-1.1,2.4-2.2,3.8-3c0.3-0.2,0.5-0.4,0.8-0.7
		c0.9,0.2,1.6,0.4,2.5,0.6c-0.3,0.7-0.5,1.4-0.9,1.9c-0.5,0.6-0.8,1.4-1.2,2c-1.3,1.9-2.1,4-3.2,6c-0.2,0.4-0.1,1-0.3,1.3
		c-0.6,0.9-0.1,2-0.7,2.8c0,1,0.1,2-0.2,2.9c-0.3,1-0.1,1.9-0.2,2.9c0,0.4-0.1,0.8,0,1.2c0.1,0.5-0.5,0.9-0.1,1.5
		c0.2,0.3,0.1,0.9,0.1,1.3c0,0.6,0.5,1,0.4,1.7c-0.1,0.6,0,1.1,0.3,1.7c0.2,0.5,0.1,1.2,0.1,1.6c0.8,1.9,1.9,3.5,2.4,5.2
		c0.5,0.8,1,1.4,1.4,2c0.7,1.4,1.6,2.7,2.7,3.8c0.6,0.6,1,1.2,1.3,1.9C167.6,285.5,167.5,285.7,167.5,286z M178.8,287.3
		c-1,0-2,0.2-2.9-0.3c-0.2-0.1-0.5,0-0.8,0c-0.7,0-1.4,0-2.2,0c-1.1,0-2.2-0.1-3.2-0.6c-0.2-0.2-0.1-0.6-0.2-1.1
		c-0.2-0.5-0.5-1.1-0.9-1.8c-0.4-0.4-0.9-0.9-1.1-1.2c-0.9-1.5-1.7-2.6-2.3-3.9c-1.2-2.2-2.4-4.3-3.2-6.6c-0.5-0.5-0.1-1.2-0.5-1.7
		c-0.4-0.5-0.2-1.1-0.2-1.7c0-0.7-0.5-1.2-0.4-1.9c0.1-0.6,0.1-1.3,0-2c-0.1-1.3,0.5-2.5,0.5-3.8c0.4-0.5,0.2-1.1,0.3-1.7
		c0.1-0.8-0.2-1.6,0.3-2.3c0.1-0.2,0.1-0.5,0.1-0.8c0-0.7,0.1-1.4,0.3-2.1c0.2-0.6,0.4-1.2,0.6-1.8c0.5-1.4,1.2-2.7,2-4
		c0.7-1.2,1.4-2.5,2.1-3.8c0.6-0.3,1-0.5,1.4-0.7c0.4,0.1,0.7,0.3,1.1,0.4c0.8,0.1,1.7-0.1,2.7,0.2c-0.2,0.6-0.3,1.2-0.6,1.7
		c-0.6,1-0.7,2.2-1,3.3c-0.4,1.3-0.7,2.6-1.2,4.3c0,0.6,0.1,1.6,0,2.7c-0.1,0.9,0.3,1.7,0.1,2.6c0.4,1.2,0.5,2.4-0.1,3.6
		c-0.1,0.3,0,0.6,0,1c0,1.1,0,2.2,0,3.3c-0.1,1.1,0.4,3.4,0.8,4.7c0.2,0.7,0.4,1.5,0.8,2.2c0.5,0.8,1.1,1.6,1.8,2.3
		c0.5,0.6,1.1,1.3,1.6,1.9c0.5,0.7,1,1.3,1.4,2.1c0.4,0.7,0.9,1.4,1.2,2.2c0.4,0.4,0.9,0.8,1.2,1.1c0.3,0.6,0.5,1.1,0.8,1.6
		c0.7,0.7,1.4,1.5,2.2,2.3C180.4,287.4,179.6,287.3,178.8,287.3z M198,287.3c-0.8,0.1-1.6,0-2.4,0c-0.5,0-1,0-1.5,0.3
		c-0.2,0.1-0.5,0.1-0.8,0.1c-0.6,0-1.2,0-1.7,0.3c-0.2,0.2-0.6,0.1-1,0.1c-1.6,0-3.1,0-4.8,0c-1.1-0.8-1.9-1.9-2.9-2.8
		c-0.9-0.9-1.8-1.9-2.6-2.6c-0.2-0.5-0.3-0.9-0.5-1.2c-0.1-0.3-0.3-0.6-0.5-0.8c-1-1-1.5-2.3-2.3-3.4c-0.5-0.7-0.9-1.4-1.3-2.2
		c-0.5-0.8-1.2-1.5-1.8-2.3c-0.2-0.3-0.4-0.5-0.6-0.8c-0.1-0.2-0.3-0.3-0.3-0.5c-0.1-0.8-0.6-1.4-0.9-2.2c-0.1-0.5,0-1-0.4-1.5
		c-0.1-0.2-0.1-0.5-0.1-0.8c0-3.6,0-7.2,0-10.8c0-0.4,0-0.8,0.2-1.1c0.1-0.2,0.2-0.5,0.2-0.7c0.1-0.7-0.1-1.4,0.3-2.1
		c0.4-0.6,0-1.4,0.4-2.1c0.2-0.2,0.1-0.6,0.1-1c0-0.3-0.1-0.6,0.1-0.8c0.6-0.7,0.1-1.7,0.6-2.4c0.3-0.5,0.4-1.1,0.6-1.6
		c0-0.1,0.1-0.2,0.3-0.4c0.6-0.4,1.1-0.7,1.7-1.1c0.2,0.2,0.3,0.2,0.3,0.3c-0.1,0.8,0.5,1.5,0.4,2.3c-0.1,0.7,0,1.3,0,2
		c0,0.5-0.1,1,0.3,1.5c0.1,0.1,0.1,0.4,0.1,0.6c0,0.8,0.1,1.6,0.3,2.5c0.2,0.8,0,1.7,0,2.4c0.5,1.8,1.3,3.2,1.7,4.8
		c0.3,1.1,0.6,2.2,1,3.3c0.4,1.1,0.8,2.2,1.5,3.1c0.7,1,1,2.2,1.5,3.5c0.6,0.5,1.1,1.3,1.5,2.1c0.5,1.1,1.2,2.2,2.1,3
		c0.2,0.2,0.4,0.4,0.5,0.6c0.6,1.2,1.7,2.2,2.5,3.2c1.1,1.5,2.5,2.7,3.7,4c0.9,1,2.1,1.8,3.3,2.4c1.1,0.5,2,1.1,3,1.7
		c0.2,0.1,0.3,0.3,0.6,0.6C199.7,286.9,198.9,287.2,198,287.3z M218.3,283.2c-1.4,0.5-2.8,1-4.2,1.3c-0.8,0.2-1.6,0.5-2.5,0.5
		c-0.6,0-1.1,0.3-1.7,0.3c-0.6,0.1-1.3-0.1-1.7,0.1c-1,0.5-2.1,0.2-3.1,0.3c-0.6-0.3-1.3-0.5-2-0.8c-0.7-0.3-1.3-0.6-1.8-1.1
		c-0.7-0.7-1.7-0.9-2.5-1.6c-1.1-0.8-2.2-1.6-3.2-2.5c-2.1-2.1-4.2-4.3-6.4-6.4c-1-0.9-1.6-2-2.5-3c-0.3-0.3-0.4-0.8-0.6-1.2
		c-0.4-1-1-2-1.6-2.9c-1.2-1.6-1.9-3.4-2.6-5.2c-0.2-0.7-0.5-1.3-0.6-2c0-0.6-0.5-1.2-0.4-1.9c-0.5-0.9-0.2-1.9-0.7-2.8
		c-0.1-0.1-0.1-0.3-0.1-0.4c0.1-0.9-0.2-1.7-0.4-2.5c-0.2-0.8-0.4-1.6-0.6-2.4c-0.1-0.3-0.2-0.6-0.2-0.9c0-0.6,0-1.2-0.3-1.7
		c-0.2-0.2-0.1-0.6-0.1-1c0-1.6,0-3.1,0-4.8c0.4-0.7,0.9-1.4,1.3-2.1c0.4,0,0.5,0.3,0.6,0.6c0.4,1.2,0.4,2.4,1.2,3.5
		c0,0.7,0.4,1.3,0.4,1.9c-0.1,1.4,0.7,2.6,0.9,3.9c0.6,0.6,0.1,1.4,0.6,2c0,0.7,0.6,1.3,0.5,2.1c0.5,1.3,0.9,2.7,1.4,4
		c0.4,0.9,0.8,1.8,1.1,2.7c0.3,0.8,0.8,1.5,1.3,2.1c1.3,1.7,2.6,3.4,3.9,5.1c0.3,0.4,0.6,0.8,1,0.9c0.9,0.4,1.4,1.1,2.1,1.8
		c0.6,0.5,1.1,1.2,1.7,1.6c0.6,0.4,1.1,0.9,1.6,1.3c1.2,1,2.2,2.1,3.2,3.1c0.6,0.6,1.2,1.2,1.8,1.8c0.6,0.8,1.6,1.2,2.3,1.8
		c2.1,0.9,3.9,2.3,6.3,2.5c1.2,0.6,2.5,0.6,3.7,1.1c0.5,0.2,1.1,0.2,1.7-0.1c0.5-0.3,1-0.3,1.5,0
		C218.8,282.8,218.5,283.1,218.3,283.2z M255.7,261.9c-1.1,0.6-2,1.5-2.6,2.6c-0.1,0.2-0.3,0.3-0.4,0.4c-0.2,0.2-0.4,0.4-0.5,0.6
		c-1.7,0.6-3,1.7-4.4,2.8c-0.6,0.4-1.1,0.9-1.7,1.3c-1.4,0.8-2.7,1.8-3.9,2.8c-0.4,0.3-0.7,0.5-1.1,0.7c-1.5,0.9-2.8,2.1-4.4,2.7
		c-1.6,0.6-3.2,1.4-4.8,2.1c-0.5,0.2-1.1,0.3-1.7,0.5c-1,0.4-2,0.8-3.1,1.1c-0.4,0.2-0.9,0.3-1.3,0.5c-0.5,0.2-1.1,0.3-1.5,0.1
		c-1-0.4-1.9-0.3-2.9-0.3c-1-0.1-2.1,0.2-3.1-0.3c-0.4-0.2-0.9,0-1.4-0.1c-0.8-0.1-1.7,0.2-2.5-0.4c-0.6,0-1.2,0-1.5,0
		c-1.5-0.6-2.7-1.1-3.9-1.6c-2-0.8-3.9-1.8-5.4-3.3c-0.8-0.8-1.6-1.6-2.4-2.4c-0.6-0.6-1.3-1.3-2.1-1.7c-0.8-0.5-1.2-1.4-2.1-1.7
		c-1.2-1.3-2.8-2.1-3.9-3.5c-0.6-0.8-1.2-1.5-1.9-2.2c-1-1.8-1.8-3.7-3-5.4c-1.1-1.6-1.6-3.5-2.5-5.2c-0.4-0.7-0.5-1.6-0.8-2.4
		c-0.3-0.7-0.6-1.4-0.9-2.2c-0.2-0.8-0.3-1.6-0.5-2.4c-0.6-1.8-0.9-3.6-1.5-5.4c-0.5-1.2-0.6-2.5-0.8-3.8c-0.1-0.5-0.3-0.9-0.4-1.4
		c0.3-0.7,0.4-1.6,0.5-2.7c0.7,1.6,1.6,2.9,2,4.3c0.1,0.5,0.5,0.9,0.8,1.3c0.4,0.4,0.6,0.8,0.9,1.3c0.8,1.6,1.8,3.1,2.7,4.7
		c0.4,0.6,0.8,1.2,1.4,2.2c0.9,1,2.2,2.4,2.8,3.9c1.1,1.3,2.1,2.5,3.2,3.6c1,1.1,2.1,2.2,3.2,3.2c0.7,0.6,1.2,1.3,2.1,1.8
		c0.7,0.4,1.1,1.3,2,1.5c1.1,1,2.2,1.8,3.4,2.6c0.4,0.3,0.9,0.6,1.3,0.8c1.4,0.7,2.8,1.3,4.2,2c1.4,0.7,2.9,1.4,4.2,2.4
		c0.5,0.4,1.1,0.6,1.8,0.7c1,0.2,2,0.5,2.9,1.1c0.6,0.1,1.3,0,1.9,0.3c0.5,0.3,1.2,0.1,1.9,0.3c1.1,0.4,2.3,0.6,3.5,0.9
		c0.8,0.2,1.6,0.5,2.4,0.7c1.7,0.5,3.4,1,5.3,0.9c1.6-0.1,3.1,0,4.7,0c0.9-0.5,1.8-0.9,2.8-1.4c0-0.3,0-0.5-0.1-0.9
		c-0.3,0-0.5-0.1-0.8-0.1c-1.2,0-2.4,0-3.5,0c-1,0-2.1,0.2-3.1-0.3c-0.5-0.2-1.2,0-1.8-0.1c-0.8-0.1-1.7,0.2-2.5-0.4
		c-0.9,0-1.8,0-2.8,0c-1-0.6-2.1-0.9-3.2-1.3c-0.7-0.2-1.5-0.5-2.1-0.8c-1-0.6-2.2-0.8-3.3-1.1c-1.1-0.2-2.2-0.9-3.3-0.9
		c-0.1,0-0.2-0.1-0.3-0.2c-1-0.4-1.7-1.2-2.7-1.4c-1-0.2-1.8-1-2.8-1.2c-0.5-0.1-0.9-0.5-1.3-0.8c-1-0.8-1.9-1.6-2.8-2.4
		c-0.6-0.6-1.1-1.2-1.9-1.6c-0.3-0.1-0.5-0.4-0.7-0.7c-1.4-1.5-3-2.7-4.7-3.8c-1.3-0.9-2.3-1.9-3.2-3.1c-0.8-1-1.6-2.1-2.4-3.1
		c-1-1.3-1.8-2.7-2.5-4.2c-0.7-0.7-1.5-1.3-2.2-2l0.1-0.1c-0.4-0.6-0.8-1.2-1.1-1.8c-0.5-0.9-1.2-1.7-1.6-2.7
		c-0.1-0.4-0.4-0.7-0.6-1c-0.6-1-1.4-2.8-1.7-4.1c-0.1-0.6-0.3-1.2-0.5-1.9c-0.3-0.6-0.7-1.2-1-1.6c0-1.3,0-2.4,0-3.6
		c0.5,0.5,0.7,1,0.9,1.5c0.2,0.5,0.5,0.9,0.8,1.6c1.2,1.1,2,2.6,3,4.1c0.6,1,1.3,2,2.2,2.7c0.4,0.7,0.6,1.5,1,2.1
		c1.1,1.6,2.4,3.1,4,4.2c0.9,0.7,1.7,1.6,2.5,2.5c0.2,0.7,0.9,1.1,1.3,1.6c1.1,0.6,2.2,1,3.1,1.8c0.2,0.2,0.5,0.2,0.6,0.4
		c0.9,1.1,2.1,1.7,3.1,2.7c0.7,0.6,1.6,1.2,2.4,1.6c1.1,0.5,2.1,1.2,3.2,1.8c1,0.6,2.2,0.9,3,1.7c1.5,0.5,2.7,1.6,4.1,2.2
		c0.5,0.2,0.9,0.7,1.5,0.9c0.6,0.2,1.1,0.3,1.6,0.6c0.9,0.6,2,0.5,2.9,1c1.3-0.1,2.5,0.6,3.7,0.9c0.4,0.1,0.7,0.3,1.1,0.3
		c0.4,0,0.8,0.1,1.1,0.2c1.5,0.4,3,0.8,4.5,0.9c0.8,0.1,1.6,0.5,2.5,0.4c0.8-0.1,1.7,0,2.6,0c0.3,0,0.6,0,0.8,0.1
		c0.8,0.5,1.6,0.2,2.4-0.1c0.4,0.2,0.8,0.3,1.1,0.4c0.2,0,0.3,0,0.4,0c0.3-0.2,0.7-0.3,1.1-0.3c0.7,0,1.4,0,2.2,0
		c1,0,1.9,0.2,2.9-0.3c0.4-0.2,0.9,0,1.4-0.1c0.8-0.1,1.6,0,2.5-0.3c0.7-0.3,1.5-0.1,2.2-0.1C256.2,261.4,255.9,261.7,255.7,261.9z
		 M270.4,244.8c-0.5,0.7-0.9,1.4-1.4,2.1c-0.5,0.7-1.1,1.3-1.7,1.9c-0.6,1.2-1.2,2.4-1.9,3.8c-0.4,0.6-1.2,1.2-1.6,2
		c-0.3,0.6-0.9,1.1-1.6,1.4c-1.1,0.4-2.2,1-3.4,1.3c-1.1,0.3-2.1,0.9-3.3,0.9c-0.8,0.5-1.8,0.3-2.7,0.4c-1.1,0.1-2.2-0.2-3.3,0.3
		c-0.3,0.2-0.8,0.1-1.2,0.1c-4.6,0-9.2,0-13.8,0c-0.6,0-1.3,0.1-1.9-0.3c-0.8,0-1.7,0-2.3,0c-1.1-0.5-1.9-0.9-2.7-1.2
		c-0.8-0.3-1.6-0.4-2.5-0.5c-0.2-0.2-0.5-0.4-0.7-0.6c-0.6-0.2-1.1-0.1-1.7-0.4c-0.5-0.3-1.1-0.1-1.7-0.3c-1.5-0.4-2.7-1.3-3.9-2
		c-0.4-0.3-0.8-0.6-1.3-0.8c-0.8-0.4-1.6-0.5-2.3-1c-0.7-0.4-1.3-0.8-2-1.2c-1.6-1-3.4-1.9-4.9-3.1c-1.6-1.3-3.3-2.5-4.8-4
		c-0.6-0.6-1.3-1.1-2-1.6c-1.6-0.9-2.8-2.3-4.3-3.2c-1.6-1.6-3.4-3.1-4.6-5.1c-0.5-0.9-1.1-1.7-1.8-2.5c-0.5-0.5-0.8-1.2-1.1-1.8
		c-0.7-1.2-1.4-2.5-2.2-3.1c-0.8-1.2-1.3-2-2-3c-0.2-0.5-0.5-1.2-0.9-2.1c0-0.5-0.1-1.1,0.1-2c0.4,0.8,0.7,1.4,1,2
		c0.6,1.3,1.4,2.5,2.5,3.5c0.8,0.7,1.2,1.5,1.8,2.3c0.8,1,2.3,2.7,3.2,3.3c0.3,0.2,0.6,0.5,0.9,0.7c0.6,0.5,1.1,1.1,1.8,1.5
		c0.7,0.4,1,1.1,1.8,1.5c0.4,0.2,0.7,0.6,1,0.9c1.4,1.4,2.8,2.9,4.1,4.2c1.3,0.7,2.4,1.3,3.5,1.8c1.8,0.9,3.5,1.9,5.2,3
		c0.8,0.5,1.7,1,2.5,1.4c0.4,0.2,0.8,0.4,1.3,0.4c0.6,0.1,1.1,0.4,1.9,0.7c2.1,0.4,4.5,0.5,6.8,1.5c0.9,0,1.7,0.6,2.6,0.5
		c0.8,0.5,1.7,0.5,2.6,0.7c1.1,0.2,2.1,0.7,3.1,1c0.1,0,0.2,0.2,0.3,0.2c1,0.1,1.9,0.3,2.9,0.4c1,0.2,2,0,2.9,0
		c1.4-0.6,2.8-0.3,4.2-0.4c0.2-0.1,0.5-0.2,0.7-0.4c0.2,0.1,0.4,0.2,0.7,0.3c0.1,0,0.3,0,0.4-0.1c0.3-0.3,0.7-0.3,1.1-0.3
		c0.8,0,1.7,0.2,2.5-0.4l0.2,0c0.8,0,1.6,0.2,2.3-0.1c0.7-0.3,1.4-0.2,2.1-0.3c1.3-0.2,2.5-0.4,3.7-0.8c1.4-0.5,2.8-0.9,4.3-1.2
		c0.8-0.2,1.6-0.5,2.4-0.8c0.7-0.3,1.4-0.4,2-0.4c0.8-0.3,1.4-0.8,2.2-0.8c0.5,0,1.1-0.4,1.7-0.7c0.2,0,0.5,0,0.8,0
		c1.1-0.6,2-1.2,3-1.8C271.2,243.3,270.9,244.1,270.4,244.8z M274.6,233.2c0,0.6-0.3,1-0.4,1.5c-0.1,0.6,0,1.1-0.3,1.7
		c-0.3,0.4-0.3,1-0.5,1.5c-0.2,0.6-0.3,1.1-0.5,1.8c-0.6,0.8-1.5,1.3-2.7,1.3c-1,0.9-2.2,1.3-3.6,1.6c-0.4,0.1-0.9,0.3-1.3,0.5
		c-1.6,1-3.5,1.3-5.3,1.8c-0.9,0.2-1.8,0-2.6,0c-1.4,0.5-2.7,1-4.3,1.6c-0.6,0.1-1.5-0.2-2.4,0.3c-0.2,0.1-0.5,0-0.8,0.1
		c-0.6,0-1.3-0.1-1.9,0.3c-0.3,0.2-0.8,0.1-1.2,0.1c-0.5,0-1-0.1-1.5,0.3c-0.1,0.1-0.2,0.1-0.4,0.1c-0.8,0-1.6-0.1-2.3,0.1
		c-0.7,0.3-1.4,0.2-2.1,0.3c-0.6,0.1-1.3,0.3-1.9,0.3c-0.6,0.1-1-0.5-1.7-0.4c-0.6,0.1-1.2,0-1.8,0c-0.6,0-1.1,0-1.7-0.3
		c-0.5-0.2-1.2-0.1-1.7-0.1c-0.8,0-1.6,0.2-2.3-0.4c-1,0-2-0.4-3-0.6c-1-0.1-1.9-0.7-2.9-1c-1-0.3-2-0.6-3-0.9
		c-0.2-0.1-0.5-0.3-0.7-0.3c-1.2,0-2.3-0.5-3.5-0.5c-0.7,0-1.5-0.3-2.2-0.5c-0.4-0.1-0.8-0.4-1.2-0.7c-0.8-0.5-1.5-0.9-2.4-1.2
		c-0.4-0.1-0.8-0.2-1.1-0.4c-0.8-0.7-1.6-1.3-2.6-1.7c-1.4-1.3-3.2-2.2-4.7-3.3c-0.2-0.1-0.3-0.2-0.5-0.3c-1.2-1-2.3-2.2-3.5-3.1
		c-1.2-0.8-2.1-2-3.3-2.7c-0.3-0.1-0.5-0.4-0.7-0.7c-2.7-2.8-5.4-5.5-8.4-8.5c-0.6-1-0.9-2.5-1.6-4.1c0-0.5,0-1.2,0-1.9
		c0.2-0.3,0.4-0.7,0.6-1.2c0.4,0.7,0.8,1.3,1.2,2.1c0.9,0.9,1.9,1.9,2.5,3.2c0.2,0.3,0.5,0.6,0.8,0.9c3.3,3.3,6.7,6.7,10,10
		c0.6,0.6,1.3,1.1,2,1.5c0.8,0.5,1.6,0.9,2.2,1.6c0.2,0.2,0.4,0.3,0.6,0.4c1.7,0.9,3.4,1.8,5.3,2.4c0.4,0.1,0.8,0.3,1.3,0.5
		c0.6,0.3,1.2,0.6,2,0.7c0.7,0.1,1.4,0.4,2.1,0.3c0.8-0.1,1.5,0.4,2.2,0.5c0.3,0,0.6,0.2,0.9,0.3c0.6,0.1,1.3,0,1.9,0.3
		c0.6,0.3,1.3,0,1.9,0.4c0.3,0.2,0.8,0.1,1.2,0.1c1.7,0,3.4,0,5.1,0c0.8,0,1.7-0.2,2.5,0.3c0.9,0,1.8,0,2.9,0
		c0.3-0.1,0.5-0.3,0.8-0.4c0.4,0.1,0.7,0.2,1.2,0.4c2,0,4.2,0,6.3,0c0.8,0,1.7-0.2,2.5,0.4c0.7,0,1.5,0.2,2.1,0
		c1.1-0.4,2.2-0.6,3.3-0.9c0.1,0,0.2-0.1,0.4-0.2c0.9,0.3,1.7,0.6,2.7,0.1c0.4-0.2,1,0,1.5-0.1c1-0.1,1.9,0.2,2.9-0.3
		c0.3-0.2,0.8-0.1,1.2-0.1c0.8,0,1.6,0,2.3,0c1-0.4,2-0.8,3-0.8c0.6,0,1.1-0.3,1.7-0.5c0.2-0.1,0.3-0.2,0.5-0.3
		c1.3-0.6,2.6-1.3,4-1.8c1.7-0.6,3-1.7,4.4-2.8c0.1-0.1,0.3-0.2,0.6-0.4C274.8,232.1,274.6,232.7,274.6,233.2z M272.4,217.4
		c0.3,1.4,1.1,2.5,1.7,3.8c-0.2,2.1,0.8,4.2,1.2,6.3c-0.2,0.8-0.8,0.8-1.4,0.9c-0.9,1.1-2.3,1.7-3.4,2.7c-0.8,0.7-1.6,1.1-2.5,1.5
		c-0.8,0.4-1.7,0.6-2.6,0.8c-1.2,0.4-2.3,0.7-3.5,1.1l-0.2,0.1c-1.3-0.2-2.4,0.5-3.6,0.4c-0.5,0-0.9,0-1.3,0.2
		c-0.3,0.1-0.6,0.1-1,0.1c-0.6,0-1.3-0.1-1.9,0.3c-0.3,0.2-0.8,0.1-1.2,0.1c-1,0.1-1.9-0.2-2.9,0.3c-0.3,0.1-0.6,0-1,0
		c-0.9,0-1.7-0.1-2.5,0c-2.8,0.6-5.6,0.2-8.4,0.4c-0.4,0-0.8,0-1.1,0.2c-0.3,0.2-0.8,0.2-1.1,0.2c-1,0-2.1,0-3.1,0
		c-0.5,0-0.9,0-1.3-0.2c-0.3-0.1-0.6-0.1-0.9-0.1c-0.9,0-1.7,0-2.6,0c-0.6,0-1.1,0-1.7,0.3c-0.6,0.2-1.3,0.2-1.9-0.1
		c-0.2-0.1-0.4-0.1-0.6-0.2c-0.2,0.1-0.5,0.2-0.7,0.3c-0.1,0-0.3,0.1-0.4,0c-0.3-0.2-0.7-0.3-1.1-0.3c-1,0-2.1,0.2-3.1-0.4
		c-1.3,0.2-2.4-0.6-3.6-0.4c-1.4-0.5-2.9-0.5-4.1-1.5c-0.9-0.8-2.1-1.3-3.2-1.8c-1.1-0.5-2-1.2-3.2-1.4c-1.4-1-3.1-1.6-4.3-2.9
		c-0.8-0.8-1.5-1.6-2.4-2.3c-0.7-0.5-1.2-1.4-1.8-2c-0.6-0.6-1.1-1.3-1.9-1.6c-1-1.1-2.2-2-3-3.3c-1.2-1.8-2.5-3.4-3.6-5.3
		c-0.4-0.7-0.9-1.4-1.3-2.2c0.5-0.8,1-1.6,1.5-2.4c0.9,0,0.8,0.8,1.2,1.2c0.4,0.3,0.8,0.7,0.9,0.8c1.4,2.7,2.8,4.8,4.8,6.5
		c0.4,0.4,0.9,0.7,1.4,1c0.5,0.4,0.8,0.8,1.4,1.1c0.5,0.3,0.9,0.8,1.3,1.2c0.6,0.5,1.1,1.1,1.7,1.7c2.4,1.2,4.8,2.4,7.2,3.6
		c1,0.5,2,0.9,3,1.3c0.6,0.2,1.1,0.4,1.6,0.7c1,0.6,2.1,0.7,3.1,0.9c0.7,0.1,1.3,0.3,1.9,0.5c1,0.4,1.9,0.7,2.9,1
		c0.9,0.2,1.8,0.7,2.8,0.6c1.3,0.6,2.7,0.3,4,0.4c0.3,0,0.6,0,0.8,0.1c0.5,0.3,1,0.2,1.5,0.3c0.7,0,1.4,0,2.2,0
		c0.4,0,0.7,0.2,1.3,0.3c0.6-0.5,1.2-0.4,1.7,0c0.1,0,0.2,0,0.2,0c0.6-0.5,1.2-0.3,1.9-0.3c0.8-0.1,1.6,0.2,2.3-0.2
		c0.7-0.4,1.4,0,2.1-0.4c0.2-0.2,0.6-0.1,0.9-0.1c0.7,0,1.4,0,2.2,0c0.6,0,1.2,0.1,1.7-0.3c0.2-0.1,0.5-0.1,0.8-0.1
		c1.7,0.1,3.3-0.5,4.9-1c0.7-0.2,1.4-0.5,2.2-0.7c0.6-0.1,1.2-0.6,1.8-0.7c0.6-0.1,1.2-0.4,1.9-0.5c0.7-0.1,1.3-0.4,2-0.7
		c3.1-1.4,5.9-3.1,8.8-4.9c1.3-0.9,2.6-1.7,3.6-2.9C271.7,218.7,271.6,217.8,272.4,217.4z M262.7,207.2c0.3-0.3,0.5-0.6,0.6-1
		c0.4-1,0.8-2,1.2-3.1c0.2,0.2,0.4,0.3,0.6,0.5c1.2,1.8,2.5,3.6,3.2,5.7c0.6,1.7,1.5,3.3,2.6,4.8c0.3,0.4,0.6,0.9,0.8,1.3
		c0.1,0.2,0.1,0.5,0.1,0.8c-1.1,0.2-1.9,0.8-2.7,1.4c-0.9,0.7-2,1.2-2.8,2.1c-0.3,0.3-0.7,0.5-1,0.5c-0.9,0.1-1.5,0.7-2.6,1
		c0,0-0.2,0.3-0.3,0.4c-0.8,0.9-1.7,1.7-2.9,1.8c-2,0.9-4,1.7-6.1,2.3c-0.4,0.1-0.7,0.3-1.1,0.5c-0.8,0.4-1.6,0.8-2.5,1.1
		c-0.8,0.3-1.6,0.3-2.4,0.7c-0.7,0.3-1.5,0.2-2.2,0.5c-0.8,0.3-1.6,0.3-2.5,0.3c-1.9,0-3.8,0-5.7,0c-1,0-1.9-0.2-2.9,0.3
		c-0.3,0.1-0.6,0-1,0c-2.4,0-4.8,0-7.3,0c-1,0-2-0.4-3-0.5c-1.1-0.2-2.1-0.6-3.2-0.7c-0.8-0.1-1.6-0.5-2.3-0.9
		c-1.4-0.7-2.9-1.1-4.3-1.5c-1.3-0.4-2.7-0.7-4-1.3c-1.2-0.5-2.4-0.9-3.6-1.4c-1.7-0.7-3.3-1.5-4.8-2.5c-0.4-0.2-0.7-0.6-1-0.9
		c-1-1-1.9-2.1-3-2.9c-1.8-1.3-3.2-2.9-4.7-4.4c-0.1-0.1-0.3-0.3-0.3-0.5c-0.5-0.7-0.9-1.4-1.4-2.1c-0.6-1-1.3-1.9-1.5-3.4
		c0.5-0.8,1-1.7,1.6-2.6c0.2-0.3,0.5-0.6,0.8-0.9c0.2-0.2,0.4-0.3,0.6-0.5c0.2,0.2,0.3,0.3,0.4,0.5c0.4,1.6,1.1,3,2,4.4
		c0.1,0.1,0.1,0.2,0.2,0.3c2.3,2.3,4.2,5,6.7,7.1c0.7,0.6,1.6,1.1,2.4,1.6c0.6,0.4,1.3,0.9,2,1.4c0.3,0.1,0.7,0.1,1.1,0.5
		c0.9,0.8,2.1,1.2,3.3,1.6c1.2,0.4,2.4,0.9,3.6,1.4c0.7,0.3,1.3,0.6,2,0.6c0.6,0.5,1.2,0.4,1.9,0.4c0.7,0,1.2,0.5,1.9,0.4
		c0.6-0.1,1.2,0,1.7,0c0.4,0.2,0.7,0.3,1,0.5c0.3-0.1,0.6-0.3,1-0.5c1,0,2,0,3.1,0c1.1,0,2.2,0.2,3.3-0.3c0.1-0.1,0.3,0,0.4,0
		c0.9,0.1,1.8-0.3,2.7-0.4c0.9,0,1.6-0.6,2.5-0.5c0.5-0.3,1-0.3,1.5-0.4c0.5,0,1-0.2,1.5-0.4c1.5-0.4,3-0.5,4.5-1.2
		c1.5-0.1,2.8-0.9,4.2-1.2c0.4-0.1,0.7-0.3,1.1-0.4c2.7-1.4,5.4-2.7,8.1-4.1c1.1-0.6,2.3-1.3,3.6-2c0.7-0.7,1.6-1.6,2.4-2.4
		C261.8,208.6,262.1,207.8,262.7,207.2z M249.5,201.8c0.1-0.7,0.6-1.3,0.9-1.9c0.6-1.2,1-2.4,1-3.7c0-0.5,0.2-1,0.3-1.5
		c-0.1-0.3-0.4-0.5-0.2-0.9c0.1-0.1,0.2-0.2,0.3-0.1c1.9,0.5,3.8,1,5.6,1.8c2.2,1,3.9,2.5,4.9,4.8c0.2,0.9-0.2,1.7-0.3,2.6
		c-0.1,0.9-0.7,1.5-1,2.6c-0.3,0.3-0.9,0.7-1.1,0.9c-0.4,0.8-0.6,1.2-0.9,1.9c-0.6,0.6-1.4,1.3-1.9,1.8c-1,0.6-1.7,1.1-2.4,1.6
		c-0.9,0.5-1.9,1.1-2.9,1.5c-1.4,0.6-2.8,1.3-4.3,1.9c-0.6,0.3-1.2,0.6-2,0.7c-0.9,0.1-1.7,0.6-2.5,0.9c-2,0.8-4,1.2-6.1,1.7
		c-0.7,0.2-1.5,0.6-2.3,0.5c-0.6,0.5-1.3,0.3-1.9,0.4c-0.4,0.2-0.9,0.5-1.5,0.7c-0.5,0-1.2,0-1.8,0c-1,0-2-0.2-2.9,0.3
		c-0.2,0.1-0.5,0-0.8,0c-1.6,0-3.1,0-4.7,0c-1.2,0-2.3-0.4-3.4-0.6c-1.2-0.2-2.5-0.5-3.7-1c-1.2-0.5-2.5-0.7-3.7-1.1
		c-1-0.3-2-0.5-2.8-1.2c-0.8,0-1.2-0.6-1.9-0.9c-0.6-0.3-1.2-0.7-1.8-1.1c-0.2-0.1-0.4-0.3-0.6-0.4c-0.6-0.4-0.8-1.2-1.4-1.6
		c-0.6-0.4-1-0.8-1.3-1.4c-0.1-0.3-0.4-0.6-0.7-0.7c-1.5-0.9-2.5-2.3-3.7-3.4c-0.2-0.2-0.4-0.5-0.6-0.8c-0.6-0.7-1-1.5-1.6-2.2
		c-0.5-0.6-0.9-1.3-0.7-2.2c0.5-0.7,1.2-1.3,1.7-1.8c0.6,0,0.8,0.3,0.9,0.6c0.6,1.2,1.6,2.2,2.3,3.3c0.5,0.8,1.4,1.1,2.2,1.6
		c0.9,0.5,1.8,0.9,2.8,1.3c1.2,0.4,2.3,1.1,3.5,1.7c0.6,0.3,1.1,0.7,1.7,0.9c0.5,0.2,1.1,0.3,1.7,0.4c0.9,0.2,1.7,0.5,2.6,0.8
		c0.8,0.2,1.6,0.5,2.4,0.6c0.7,0,1.3,0.4,2.3,0.7c0.5,0.1,1.3-0.2,2,0.3c0.2,0.2,0.6,0.1,1,0.1c0.9,0,1.8,0,2.8,0
		c0.6,0,1.2,0.1,1.7-0.3c0.2-0.1,0.5-0.1,0.8-0.1c0.8,0,1.6,0.1,2.3-0.4c0.6,0.1,1.1-0.3,1.7-0.4c0.6-0.1,1.1-0.1,1.7-0.3
		c0.6-0.2,1.3,0,1.8,0c1.2-0.4,2.2-0.9,3.2-1.1c1.1-0.2,2.2-0.6,3.4-0.8c1.5-0.3,2.8-0.9,4.2-1.3c0.4-0.1,0.8-0.5,1.1-0.7
		c1.1-0.7,2.2-1.4,3-2.4C248.6,203.6,249.3,202.9,249.5,201.8z"/>
	<path class="st0" d="M78.5,120.9c0.4,0.4,1,0.6,1.5,0.8c2,0.7,4,1.5,6,2.2c0.8,0.3,1.6,0.8,2.5,1c0.9,0.3,1.8,0.5,2.8,0.8
		c0.2,0.1,0.5,0.2,0.7,0.2c0.7-0.1,1.3,0.3,1.9,0.4c0.7,0.1,1.2,0.4,1.8,0.6c0.8,0.3,1.6,0.5,2.4,0.6c0.8,0,1.3,0.5,2.1,0.5
		c0.8,0.7,2,0.6,2.9,1c0.4,0.2,0.9,0.1,1.3,0.3c2,0.6,3.9,1.6,6.1,2.2c0.6,0,1.3-0.1,2,0c0.6,0.1,1.1,0.4,1.7,0.3
		c0.7,0,1.2,0.5,1.9,0.4c0.7,0.5,1.5,0.4,2.3,0.4c0.5,0,1.1-0.1,1.5,0.1c0.6,0.3,1.2,0.1,1.7,0.3c0.6,0.3,1.2,0.4,1.9,0.4
		c0.3,0,0.6,0,0.8,0.1c0.4,0.3,0.9,0.2,1.3,0.2c0.4,0,0.8-0.1,1.2,0.1c1.5,0.5,3.1,0.7,4.6,1.3c0.8,0.3,1.6,0.9,2.5,1
		c1,0.1,1.7,0.7,2.5,0.9c0.9,0.2,1.7,0.6,2.4,1.2c0.1,0.1,0.2,0.2,0.3,0.2c1.3,0.5,2.7,1,3.9,1.4c0.6,0.4,1.1,0.7,1.5,1.1
		c0.8,0.7,1.8,1.3,2.7,1.8c0.7,0.4,1.3,0.9,1.9,1.3c0.8,0.4,1.1,1.3,1.6,1.9c1.3,1.4,2.2,3,3.5,4.4c1.7,1.9,3.6,3.6,5.4,5.4l0.2,0.1
		c1.1,0.9,2.3,1.4,3.5,1.9c1.2,0,2.3-0.1,3.3,0.4c0.4,0.2,0.9,0.3,1.2,0.5c1,0.5,2.1,0.5,3.1,1c0.5,0.2,1.2,0.1,1.7,0.1
		c0.9,0,1.8-0.3,2.6-0.6c1.8-0.6,3.5-1.2,5.2-2.2c1.6-0.9,3.7-2.9,4.8-4.5c0.9-1.2,1.4-2.5,2.1-3.7c0.3-0.7,0.6-1.4,0.9-2.1
		c0.2-0.6,0.2-1.2,0.5-1.9c0.2-0.6,0.1-1.3,0.1-1.9c-0.1-1,0.2-2.1-0.3-3.1c-0.1-0.1,0-0.4,0-0.6c0-0.9-0.2-1.7-0.4-2.5
		c-0.6-2.7-1.8-5.1-3.2-7.4c-0.3-0.4-0.5-0.9-0.9-1.3c-1.3-1.4-2.7-2.7-4-4c-0.2-0.2-0.4-0.3-0.6-0.4c-1.1-0.9-2.3-1.4-3.6-2
		c-2.8,0-5.5,0-8.2,0c-0.3,0.1-0.5,0.3-0.7,0.4c-0.8,0.1-1.6-0.2-2.3,0.4c-2,0.7-3.1,1.3-4.5,2.6c-1.5,1.5-3.1,3-4.6,4.5
		c-0.3,0.9-0.8,1.6-1.2,2.5c-0.4,0.8-0.6,1.7-0.8,2.5c0.3,0.6,0.4,1.1,0.4,1.7c0,0.5-0.2,1.1,0.1,1.6c0.5,0.9,0.2,1.9,0.4,2.9
		c0.9,1.4,1,3.1,1.9,4.5c0.2,1.1,0.9,1.8,1.6,2.6c0.7,0.8,1.4,1.5,2.2,2.2c1.1,1,2.3,2,3.7,2.5c1,0.4,1.9,0.7,2.9,1
		c0.7,0.2,1.4,0.4,2.1,0.4c1.9,0.1,3.8,0,5.5,0c0.6-0.2,1.1-0.4,1.4-0.5c0.7-0.5,1.3-0.9,1.9-1.3c1.7-1.1,3.4-2.2,4.6-4
		c0-0.1,0.1-0.3,0.2-0.4c0.6-0.8,0.6-1.8,1-2.7c0.2-0.4,0.1-0.9,0.1-1.4c0-0.4,0-0.8,0-1.2c0.1-1-0.2-1.9-0.4-2.9
		c-0.1-0.6-0.4-1.1-0.7-1.6c-0.5-1-1-2-1.4-2.8c-1-1.3-2.2-2.1-3-3.4c-0.4-0.7-1.3-0.9-1.6-1.6c-0.1-0.1-0.2-0.2-0.3-0.3
		c-1.8-1.1-3.4-2.4-5.8-2.8c-0.4,0-1.1,0-1.9,0c-1.3-0.1-2.4,0.3-3.5,0.8c-0.9,0.5-1.9,0.9-2.8,1.4c-0.5,0.5-0.9,0.9-1.4,1.4
		c-1,1.4-1,3.2-1.7,4.8c0,0.9,0,1.8,0,2.7c-0.1,1,0.7,1.9,0.4,2.8c0.6,1.3,1.2,2.4,1.8,3.6c0.4,0.4,0.8,0.8,1.3,1.2
		c0.5,0.4,1.1,0.7,1.5,1.2c0.8,0.7,1.7,1.1,2.7,1.5c0.9,0.3,1.8,0.7,2.8,0.1c0.1-0.1,0.3-0.1,0.4-0.1c0.8,0.2,1.5-0.3,2.3-0.5
		c0.7-0.1,1.4-0.6,2.2-0.9c0.6-0.6,1.3-1.3,1.8-1.8c0.5-1.1,1-1.9,1.2-2.9c0.1-0.5,0.3-1,0-1.3c-0.4-0.6-0.2-1.4-0.6-2
		c-0.4-0.6-0.6-1.4-0.9-2.1c-0.3-0.6-0.6-1.3-1.2-1.8c-0.3-0.2-0.5-0.6-0.7-0.9c-0.5-0.2-1.1-0.3-1.6-0.6c-0.6-0.4-1.3,0-1.9-0.3
		c-0.6-0.3-1.1-0.2-1.9-0.2c-0.7,0.5-1.7,1-2.4,1.7c-0.6,0.6-1.2,1.4-1.4,2.3c0,0.8,0,1.6,0,2.3c0.7,1.3,1.4,2.6,2.5,3.3
		c0.7,0.2,1.2,0.4,1.8,0.5c0.8-0.3,1.6-0.6,2.3-0.9c0.3-0.7,0.6-1.4,0.9-2c0.1-0.1-0.1-0.4-0.1-0.6c-0.3,0-0.5,0-0.8-0.1
		c-0.3,0.4-0.5,0.7-0.9,1.1c-0.3,0.1-0.6,0.3-0.8,0.4c-0.6,0-1.1,0-1.5,0c-0.6-0.6-1.2-1.1-1.6-1.5c-0.2-0.6-0.3-1-0.4-1.4
		c0.1-0.4,0.3-0.8,0.4-1.3c0.3-0.4,0.7-0.8,1-1c0.6-0.2,1-0.3,1.4-0.4c0.4,0.1,0.7,0.1,1.1,0.2c1.7,0.4,3.3,0.9,4,2.7
		c0.8,0.8,0.9,2,1.4,2.9c0.1,0.1,0,0.3,0,0.5c-0.9,0.9-1.9,1.9-2.9,2.9c-0.2,0.2-0.4,0.3-0.6,0.4c-1,0.8-2.1,1.2-3.2,1.5
		c-0.7,0-1.4,0-1.9,0c-2.2-1-3.9-2.5-5-4.5c-0.2-0.8-0.4-1.4-0.5-2.1c-0.1-2.3,0-4.6,0-6.9c1.7-2,4-2.9,6.3-3.7
		c0.6,0.6,1.6,0.2,2.2,0.7c0.1,0.1,0.4,0.1,0.6,0.1c1.2,0,2.2,0.5,3.2,1.1c0.3,0.2,0.5,0.3,0.8,0.5c1.3,0.7,2.6,1.5,3.7,2.9
		c0.2,0.9,0.9,1.6,1.6,2.3c0,1.1,1,1.9,0.9,3c0.8,0.9,0,2.2,0.7,3c-0.4,1.8-0.8,3.4-1.6,4.6c-0.9,0.9-1.6,1.7-2.3,2.4
		c-1.4,0.6-2.7,1.2-3.9,1.7c-1,0-2,0-2.8,0c-0.3,0.1-0.5,0.3-0.7,0.4c-0.8-0.4-1.5-0.9-2.4-0.8c-0.5-0.4-1.1-0.3-1.7-0.4
		c-0.6-0.2-1.1-0.5-1.6-0.7c-0.5-0.2-0.9-0.4-1.7-0.7c-0.1-0.2-0.4-0.6-0.8-0.8c-0.9-0.6-1.6-1.3-2.2-2.2c-1.3-1.8-2.7-3.5-3.3-5.7
		c-0.6-0.7-0.6-1.7-0.9-2.5c-0.4-1.1-0.7-2.2-0.5-3.6c0.1-0.1,0.2-0.3,0.3-0.6c0.7-2.5,2.3-4.9,3.9-6.4c0.7-0.7,1.6-1.3,2.3-2
		c1-1.1,2.2-1.5,3.6-1.8c0.2-0.1,0.6,0,0.8-0.1c0.6-0.4,1.5,0,2-0.6c0.7,0,1.4,0,2.2,0c0.9,0,1.8,0,2.5,0c1.9,0.6,3.5,1.2,5.4,1.8
		c0.6,0.6,1.4,1.4,2.2,2.2c0.8,0.8,1.3,1.9,2.2,2.7c0.2,0.7,0.7,1.1,1.2,1.5c0.6,0.6,0.9,1.4,1.1,2.1c0.7,0.9,1.2,1.7,1.9,2.5
		c0,0.3-0.1,0.8,0,1.1c0.4,0.9,0.3,1.8,0.4,2.7c0,0.2,0,0.4,0.1,0.6c0.2,0.4,0.2,0.7,0.2,1.1c0,0.8,0,1.6-0.3,2.5
		c-0.3,0.7,0.1,1.7-0.4,2.5c0.1,0.8-0.3,1.4-0.7,2c-0.4,0.7-0.5,1.5-0.9,2.1c-1.4,1.9-3,3.6-5,4.9c-0.9,0.6-1.9,1.1-3,1.3
		c-1,0.2-2,0.6-3,0.6c-1.6-0.1-3.1,0-4.7,0c-0.3-0.1-0.6-0.3-0.9-0.4c-1.3-0.4-2.8-0.6-4.1-1.2c-1.1-0.5-2.2-0.9-3.1-1.6
		c-0.7-0.5-1.4-0.9-2.2-1.3c-1-1-2.1-1.9-2.8-3.2c-0.5-0.9-1.2-1.5-1.9-2.2c-0.3-0.3-0.7-0.6-0.9-1c-1-1.5-2.3-2.8-3.3-4.3
		c-0.4-0.6-0.9-1.1-1.5-1.5c-1-0.7-2.1-1.3-3.1-2c-1-0.6-2-1.2-3-1.8c-0.5-0.3-1-0.5-1.6-0.7c-1.1-0.4-2.3-0.7-3.5-1.1
		c-1-0.3-2-0.4-3.1-0.6c-1.6-0.9-3.4-1.6-5.5-2.2c-0.3,0-0.8,0-1.4,0c-0.6,0.1-1.1-0.4-1.7-0.4c-0.9,0-1.6-0.5-2.5-0.4
		c-1.1,0.1-2.1-0.2-3.1-0.4c-1.7-0.4-3.4-0.8-4.9-1.6c-0.5-0.3-1.1-0.3-1.7-0.5c-0.6-0.2-1.1-0.3-1.7-0.3c-0.3,0-0.5,0-0.8-0.1
		c-1-0.3-1.9-0.7-2.9-1c-0.7-0.2-1.5,0.1-2.1-0.3c-0.6-0.4-1.5,0.1-2.1-0.5c-1.2-0.2-2.4-0.7-3.5-0.9c-0.9-0.2-1.8-0.4-2.6-0.6
		c-0.3-0.1-0.6-0.2-0.9-0.2c-0.5,0-1,0-1.4,0c-1.1-0.5-2-0.9-3-1.3c-0.3-0.1-0.6-0.2-0.9-0.3c-0.9-0.3-1.8-0.3-2.6-0.5
		c-2.9-0.8-5.5-2.1-8.2-3.5c-1.5-1.2-3.3-2-4.7-3.4c-0.6-0.6-1.5-1-2.3-1.5c-1.3-0.7-2.6-1.4-3.9-2.1c-0.2-0.1-0.3-0.2-0.5-0.3
		c-0.6-0.7-1.4-1-1.9-1.2c-1-0.8-1.9-1.4-2.7-2.1c-0.5-0.5-1.1-0.8-1.8-1c-0.7-0.2-1.3-0.6-1.8-1c-0.9-0.8-1.9-1.6-2.8-2.4
		c-1.6-1.3-2.3-1.9-3.4-3.4c-1-1.3-2.2-2.3-3.8-2.9c-0.2,0.2-0.3,0.3-0.4,0.5c0.3,0.5,0.7,1.1,1,1.7c-0.3,0-0.6,0.1-0.8,0
		c-0.4-0.1-0.7-0.4-1.1-0.3c-0.5,0.1-1-0.2-1.5-0.3c-1.9-0.5-3.6-1.4-5.4-2.2c-1.2-0.5-2.4-1.2-3.5-2.1c-1.3-1-2.9-1.7-4.3-2.6
		c-1.8-1.1-3.7-2.2-5.5-3.2c-1.7-1-3.3-2.1-4.5-3.6c-0.1-0.4-0.1-0.7,0.3-1c1.5,0.1,2.6,1.3,4,1.8c1.4,0.5,2.7,1.4,4,2.1
		c0.5,0,1,0.1,1.5-0.2c0-0.2,0-0.4,0.1-0.8c-0.3-0.3-0.6-0.7-1-0.9c-0.7-0.2-1-1.1-1.9-0.9c-1.2-0.7-2.5-1.1-3.3-2.3
		c-0.1-0.2-0.3-0.3-0.4-0.4c-2.9-1.5-5.4-3.5-8.3-4.9c-0.1-0.1-0.2-0.3-0.4-0.5c1.2-0.1,2.3-0.2,3.3,0.3c1.3-0.2,2,1.3,3.1,1.3
		c1.3,1,2.6,2,4,2.9c0.4,0.3,0.9,0.6,1.2,0.9c1,1,2,2,3,2.5c1.3,0.4,2.3,0.7,3.3,0.9c0.1-0.1,0.3-0.2,0.3-0.3
		c0.1-0.1,0.2-0.3,0.3-0.4c-0.1-0.2-0.1-0.3-0.2-0.4c-2-1.3-4-2.6-6-3.8l-0.1,0.1c-0.5-0.6-1.1-1.2-1.5-1.7
		c-1.4-0.4-2.3-1.4-3.3-2.1c-1.1-0.8-2.7-2.6-3.3-3.6c0.1-0.1,0.1-0.2,0.3-0.4c0.9,0.5,2,0.7,2.9,1.4c0.7,0.6,1.8,0.8,2.6,1.1
		c0.8,0.8,1.6,1.6,2.4,2.4c1,1,2,2.1,3.3,2.8c0.1,0.1,0.2,0.1,0.3,0.1c0.4,0,0.7,0,1,0c0.3-0.2,0.6-0.4,0.6-0.9
		c-0.9-1-2.3-1.7-3.5-3c-0.1-0.2-0.3-0.6-0.6-1.1c-0.9-0.8-1.7-1.6-2.6-2.3c-0.9-0.6-1.9-1.1-2.5-2.1c-0.1-0.1-0.1-0.2-0.1-0.4
		c0.3-0.5,0.8-0.3,1.2-0.3c0.6,0.3,1.3,0.7,1.8,0.9c0.7,0.6,1.2,1.1,1.9,1.6c1.3,0.9,2.5,1.8,3.6,3c0.3,0.4,0.6,0.7,1,1
		c1,1.1,2.2,1.8,3.4,2.5c0.9,0,1.7,0,2.7,0c0.3-0.3,0.6-0.6,0.9-0.9c0-1.5,0-3,0-4.3c0.2-0.2,0.3-0.3,0.5-0.5
		c1.2,0.3,1.8,1.2,2.5,1.9c0.1,0.8,0.6,1.5,0.5,2.3c0.5,1,0.6,2.1,1.5,2.9c0.3,0.3,0.5,0.7,0.7,1.1c0.4,0.7,0.7,1.6,1.2,2.2
		c0.5,0.7,0.6,1.6,1,2.3c0.2,0.3,0.4,0.7,0.6,1c0.4,0.2,0.9,0.2,1.3,0.5c0.5,0.4,1,0.6,1.5,0.9c1.3,0.7,2.7,1.3,3.8,2.3
		c0.9,0.8,1.9,1.3,2.9,1.9c0.9,0.6,1.8,1.3,2.8,1.7c1.1,0.5,2,1.1,3.1,1.6c1.7,0.8,3.3,1.8,4.9,2.8c0.5,0.3,1.1,0.7,1.7,0.9
		c1.4,0.5,2.7,1.2,4.1,1.8c0.2,0.1,0.5,0.3,0.7,0.3c1.8,0.5,3.5,1.3,5.2,2.2c0.4,0.2,0.8,0.5,1.2,0.6c1.3,0.4,2.5,1.1,3.8,1.5
		c1.3,0.4,2.5,1.1,3.8,1.7c0.9-0.1,1.9,0.1,2.8,0.4c0.5,0.2,1,0.3,1.5,0.4c0.3,0,0.6,0.1,0.9,0.2c0.6,0.2,1.1,0.4,1.7,0.5
		c1,0.1,2,0.5,2.9,1c0.9,0.5,1.9,0.9,2.9,1.4c2.7-0.4,5.3,0.6,7.6,1.8c1.7,0.2,3.3,0.7,4.7,0.5c1.1,0.5,2.1,0.8,2.9,1.2
		c1.1,0,2.1,0.1,3.1,0c1.1-0.1,2,0.3,3.1,0.5c1,0.1,1.9,0.3,2.8,0.6c1.1,0.3,2.2,0.1,3.3,0.2c0.8-0.5,1.6-0.3,2.5-0.4
		c0.5,0,1,0,1.5-0.2c0.3-0.2,0.9-0.3,1.1-0.1c0.6,0.5,1.4,0.2,2.1,0.6c0.4,0.3,1,0.2,1.5-0.1c0.4-0.2,0.8-0.5,1.1-0.7
		c0.1-0.1,0.2-0.1,0.1-0.1c0.7-0.2,1.2-0.3,1.4-0.3c0.7,0.1,1.2,0.2,1.6,0.2c1,0,2-0.1,2.9-0.1c0.5-0.4,1.1-0.3,1.7-0.3
		c1.4,0,2.7,0,3.8,0c0.8-0.3,1.2-0.4,1.7-0.6c0.9-0.3,1.8-0.8,2.7-0.9c1-0.2,1.7-0.8,2.7-1c0.3-0.1,0.6-0.2,0.9-0.2
		c0.4-0.1,0.9-0.2,1.3-0.3c0.5,0.4,1-0.2,1.5-0.1c1.1-0.4,2.3-0.4,3.5-0.4c0.2,0.1,0.4,0.2,0.7,0.4c0.6,0,1.2,0,1.9,0
		c0.3,0,0.7-0.1,1,0c1.2,0.6,2.4,0.2,3.7,0.3c0.2-0.3,0.4-0.5,0.7-0.8c-0.2-0.4-0.3-0.7-0.4-1c-1-0.3-1.9-0.6-3.1-1
		c-0.7,0-1.6,0-2.5,0c-0.9-0.6-1.9-0.3-2.9-0.4c-0.3,0-0.6,0-1-0.1c0.4-0.6,0.8-1,1.1-1.5c0.3-0.5,0.7-0.9,1.2-1.2
		c0.6-0.3,0.9-0.8,1.3-1.4c0.4-0.7,0.6-1.6,1-2.3c1-1.9,1.9-3.8,2.3-5.4c0.4-2-0.1-3.4-0.4-4.9c-0.1-0.1-0.2-0.2-0.2-0.3
		c-0.1-0.2-0.2-0.3-0.3-0.4c-0.1-1-0.3-1.6-0.7-2.2c-0.3-0.5-0.6-1-0.9-1.5c-0.6-1-0.8-2.2-1.5-3.1c-0.1-0.2-0.1-0.5-0.1-0.5
		c-0.7-1.2-1.8-1.6-2.7-2.3c-0.1-0.1-0.3,0-0.4,0c-0.6,0.4-1.3,0.8-1.9,1.1c-0.6,0-1,0-1.6,0c-0.2-0.2-0.4-0.5-0.5-0.7
		c-0.2,0-0.4,0-0.4,0c-0.6-0.5-1.1-0.9-1.6-1.2c0-0.8,0-1.4,0-1.9c-0.4-0.6-0.6-1.1-0.1-1.7c-0.3-0.4-0.5-0.9-0.8-1.2
		c-0.3-0.4-0.7-0.8-1.1-1.1c-0.4-0.3-0.8-0.7-1.2-1c-0.5-0.3-1-0.7-1.5-0.9c-0.5-0.2-0.9-0.5-1.4-0.6c-0.5-0.2-1.1-0.2-1.5-0.4
		c-0.5-0.3-1,0.1-1.4-0.3c-0.5,0.1-1,0.2-1.5,0.4c-0.6,0.2-1.3,0.3-1.8,0.7c-0.7,0.5-1.6,0.9-2.4,1.3c-0.9,0-1.9,0-2.8,0
		c-1,0-1.8-0.7-2.7-0.4c-0.6-0.3-1-0.6-1.4-0.9c-0.5-0.3-1-0.6-1.5-0.8c-0.1-0.8-1-0.5-1.4-0.9c-0.9-0.9-2-1.4-3.2-1.7
		c-1.2,0-2.4,0-3.6,0.3c-2,0.6-2,0.5-4,2.1c-0.1,0.1-0.1,0.2-0.2,0.5c0.2,0.2,0.4,0.4,0.6,0.6c1.4,0.1,2.5-0.6,3.7-1.1
		c1.3,0,2.5,0,3.7,0c0.9,0.5,1.8,0.9,2.9,1.5c0.2,0.3,0.6,0.7,0.8,0.9c1.1,0.7,1.9,1.1,2.6,1.5c1.1,0.1,2.1-0.2,3.1,0.4
		c0.2,0.1,0.5,0,0.8,0c0.7,0,1.3,0,1.9,0c1.1-0.5,2.2-0.9,3.2-0.8c0.9-0.4,1.7-0.8,2.3-1.1c0.8,0,1.4,0,1.8,0c1.6,0.4,2.7,0.9,3.6,2
		c0.1,0.1,0.2,0.2,0.3,0.2c0.8,0.3,1.2,1,1.8,1.5c0,1,0,2,0,2.5c0.4,1.8,1.5,2.8,2.3,4c0.9-0.1,1.7,0.4,2.4,0.8c0.5,0,0.9,0.1,1.2,0
		c1.1-0.5,2.2-0.3,3.3-0.3c0.3,0.5,0.6,1,0.8,1.6c0.6,1.3,1.1,2.6,2,3.7c0.4,0.5,0.8,1.3,0.9,1.9c0.2,1,0.6,1.8,0.8,2.7
		c0,0.8,0,1.6,0,2.4c-0.1,0.2-0.2,0.3-0.2,0.4c-0.6,1.6-1.1,3.3-2.3,4.6c-0.2,0.3-0.3,0.7-0.4,1.1c-0.6,0.8-1.6,1.4-2,2.4
		c-0.1,0.2-0.3,0.3-0.4,0.4c-1.1,0.6-1.9,1.5-2.6,2.6c-0.6,0.9-1.5,1.6-2.6,1.9c-0.5,0.1-1,0.3-1.5,0.5c-0.3,0.3-0.7,0.6-1,0.9
		c-0.5,0.2-0.9,0.3-1.3,0.4c-0.1-0.1-0.3-0.1-0.5-0.2c-0.5,0.2-1.1,0.4-1.7,0.4c-0.4,0-1-0.1-1.3,0.1c-0.5,0.2-1,0.3-1.5,0.3
		c-0.9-0.1-1.7,0.2-2.5,0.4c-0.9,0.2-1.8,0.1-2.7,0.1c-0.1,0-0.3,0-0.4,0.1c-0.5,0.3-1,0.3-1.5,0.3c-1,0-2,0-2.9,0
		c-0.4,0-0.8,0-1.1,0.2c-0.7,0.4-1.4,0.2-2.1-0.2c-0.3,0.4-0.9,0.4-1.4,0.4c-2.6,0-5.1,0-7.7,0c-0.4,0-0.9,0.1-1.2-0.1
		c-0.7-0.4-1.5-0.3-2.3-0.3c-0.4,0-0.9,0.1-1.2-0.1c-0.7-0.4-1.4-0.2-2.1-0.4c-0.8-0.1-1.5-0.4-2.3-0.4c-0.2,0-0.4,0-0.6-0.1
		c-0.6-0.4-1.3-0.2-1.8-0.3c-0.5-0.3-1-0.5-1.4-0.7c-0.8-0.1-1.6,0.1-2.3-0.4c-0.7,0.1-1.2-0.3-1.9-0.4c-1.9-0.2-3.8-0.8-5.6-1.3
		c-0.2-0.1-0.5-0.3-0.7-0.2c-1,0.2-1.9-0.3-2.9-0.5c-0.9-0.1-1.9-0.5-2.7-0.9c-1.5-0.7-3-1-4.6-1.4c-1.5-0.5-3.1-0.7-4.6-1.5
		c-1.1-0.6-2.2-1-3.5-1.2c-1.1-0.1-2-0.5-2.9-0.9c-0.6-0.3-1.2-0.5-1.8-0.8c-1.4-0.5-2.8-1.2-4.2-1.9c-0.6-0.3-1.2-0.7-1.8-1.1
		c-1.2-0.6-2.5-1-3.6-1.8c-0.2-0.1-0.3-0.3-0.5-0.3c-0.8,0-1.3-0.5-2-0.8c-0.6-0.3-1.3-0.5-2-0.8c-0.5-0.2-0.9-0.5-1.4-0.7
		c-1.5-0.9-3-1.8-4.9-2.8c-0.1-0.2-0.5-0.6-0.8-1c-1.9-0.8-3.3-2.1-4.8-3.2c-0.9-0.7-1.8-1.4-2.8-1.7C55.2,88,55,88,54.8,88.1
		c-0.3-0.4-0.6-0.7-0.8-1.1c-2-4-4-8-6-12c-0.4-0.9-0.7-1.8-1.4-2.5c-0.6-0.3-1.2-0.6-1.7-0.8c-1.2,0.4-2,1.2-2.4,2.4
		c-0.1,0.5,0.1,1.2-0.3,1.8c0,0,0,0.1,0,0.3c0.6,0.8,0.2,1.8,0.3,2.9c-0.1,0.1-0.3,0.3-0.5,0.5c-1.1-0.6-2-1.2-2.7-2.1
		c-0.3-0.4-0.6-0.7-1-0.9c-0.9-0.4-1.6-1.2-2.3-1.7c-0.8-0.6-1.6-1.1-2.4-1.7c-0.8-0.6-1.6-1.1-2.4-1.6c-0.7-0.5-1.6-0.6-2.3-1.1
		c-0.7-0.5-1.6-0.3-2.4-0.7c-0.2-0.1-0.5,0-0.8,0c-0.2,0.4-0.4,0.8-0.7,1.2c0.1,0.3,0.3,0.6,0.4,0.9c0.1,0.3,0.2,0.6-0.1,0.9
		c-1.2-0.6-2.5-0.8-3.9-0.6c-0.2,0.2-0.5,0.3-0.7,0.6c-0.2,0.2-0.7,0.1-0.7,0.7c0.2,0.4,0.6,0.9,0.9,1.3c0.3,0.5,1,0.7,1,1.6
		c-1.2-0.4-2.3-0.8-3.5-1.2c-0.6,0.5-1.6,0.2-2,1.1c0,0.4,0,0.8,0,1.1c0.7,0.8,1.3,1.6,1.9,2.3c1.4,0.9,2.8,1.8,4.3,2.7
		c-0.9,0.7-0.9,0.7-1.5,2c0.3,0.7,0.7,1.2,1.2,1.8c1.3,1.3,2.6,2.6,3.7,3.7c0.8,0.5,1.4,0.7,1.9,1.1c1.3,1.1,2.7,2,4.2,2.8
		c1,0.5,1.9,1.2,2.8,1.8c1.4,0.9,2.8,1.8,4.2,2.7c0.7,0.4,1.3,0.8,2,1.1c1.4,0.6,2.9,1.1,4.3,1.6c0.8,0.3,1.7-0.1,2.4,0.6
		c0.8-0.1,1.5,0.3,2.3,0.4c0.8,0.1,1.4,0.7,2.2,0.8c0.4-0.1,0.8-0.2,1.2-0.4c1,1,2,2,2.7,2.9c0.7,0.4,1.3,0.6,1.6,0.8
		c1.4,1.4,2.7,2.6,4,3.8c1.4,1.2,2.7,2.4,4.6,3.1c0.4,0.5,0.9,1.1,1.2,1.4c1.2,0.7,2.1,1.1,2.9,1.6c1.3,0.8,2.5,1.6,3.8,2.3
		C76,119,77.3,119.8,78.5,120.9z"/>
	<path class="st0" d="M67.4,36.3c1,0,2,0,2.9,0c2.4,1.1,4.1,2.9,5.8,4.6c0.9,0.9,1.8,1.9,2.6,2.6c1.1,0.6,2,1,2.9,1.4
		c0.8,0.5,1.7,0.4,2.6,0.7c0.4,0.1,0.9,0.1,1.3-0.1c0.3-0.1,0.6-0.2,0.9-0.2c0.5,0,0.9-0.2,1.3-0.3c0.6-0.1,1-0.6,1.5-0.8
		c1.7-0.5,3.2-1.7,5.3-2.1c0.5,0,1.3,0,2.1,0c0.8,0,1.6,0,2.3,0c1.3,0.7,2.6,1.3,3.7,2.2c0.9,0.8,2.1,1.3,3.2,1.8
		c0.7,0.3,1.5,0,2,0.6c0.9,0,1.7,0,2.6,0c1.5,0,3,0,4.5,0c0.3,0,0.7-0.1,1,0c0.9,0.6,1.7,0.2,2.5-0.1c0.5,0.2,0.8,0.4,1.2,0.4
		c0.8,0,1.5,0.5,2.2,0.8c0.5,0.3,1,0.7,1.2,1.2c0,0.1,0.1,0.2,0.2,0.3c0.6,0.5,1.2,1,2,1.6c0.7,0.2,1.4,0.8,2.3,0.9
		c0.9,0.1,1.7,0.6,2.6,0.7c0.9,0.1,1.8,0,2.6,0c0.8-0.3,1.5-0.5,2.2-0.8c0.9,0,1.8,0,2.7,0c0.3,0,0.7,0,0.9-0.1
		c0.8-0.4,1.8-0.1,2.6-0.6c0.3-0.2,0.9,0,1.3,0.1c1,0.3,2.1,0.7,3.1,1.1c0.9,0.4,1.8,0.7,2.6,0.7c0.9,0.7,1.7,1.3,2.5,1.8
		c0.5-0.4,1-0.3,1.5-0.3c0.6,0.3,1.1,0.5,1.6,0.8c0.9,0,1.8,0,2.7,0c0.8,0.6,1.8,0.3,2.6,0.3c0.6-0.3,1.1-0.5,1.6-0.7
		c0.4,0.2,0.8,0.3,1.1,0.4c2-1,3.8-2.1,5.4-3.6c0.1-0.1,0.3-0.3,0.5-0.4c0.8-0.2,1-0.9,1.5-1.4c0.5-0.5,1.1-0.9,1.6-1.4
		c0.2-0.3,0.3-0.7,0.5-1.1c-0.4-0.3-0.6-0.9-1.3-0.8c-0.8,0.7-1.6,1.5-2.1,2.5c-0.5,0.3-1.1,0.5-1.6,0.8c-0.8,0.8-1.6,1.8-2.9,2.2
		c-0.4,0-1,0-1.5,0c-0.9,0.4-1.8,0.5-2.2,1.1c-0.7,0.1-1.2,0.2-1.7,0.3c-1-0.4-2.2-0.1-3.4-0.3c-1.3-1-3.2-1-4.5-2.3
		c-0.6,0-1.2,0-1.7-0.4c-0.7-0.6-1.6-0.8-2.4-1.1c-3.1,0-6.3,0-9.4,0c-1.4,0.8-2.9,1.3-4.5,1.2c-1-0.1-2,0-2.9,0
		c-1.1-0.5-2.3-0.8-3.4-1.5c-0.5-0.5-1.1-1.2-1.7-1.7c-0.6-0.5-1.3-1-2-1.5c-0.9,0-1.6-0.7-2.5-0.9c-0.9-0.1-1.8-0.3-2.6-0.7
		c-0.4-0.2-1-0.1-1.3,0c-0.6,0.3-1.1,0.3-1.7,0.3c-0.6,0-1.3-0.1-1.9,0.3c-1.3,0-2.6,0-3.9,0c-0.6-0.5-1.3-0.2-2-0.4
		c-0.8-0.5-1.7-1-2.5-1.5c-0.5-0.3-0.9-0.8-1.4-1.1c-0.8-0.5-1.7-1-2.6-1.2c-1-0.3-2.1-0.5-3.2-0.5c-1.2,0.1-2.4,0-3.5,0
		c-0.8,0-1.5,0.1-2.3,0.4c-1.8,0.7-3.7,1.1-5.2,1.9c-1.8,0.4-3.1-0.8-4.6-0.8c-0.2-0.2-0.3-0.3-0.5-0.4c-1.1-0.7-2-1.4-2.6-2.5
		c-0.4-0.6-1-1-1.5-1.5l-0.2,0c-0.1,0.1-0.2,0.1-0.4,0.2c-0.2-0.3-0.3-0.6-0.5-0.9c-1.6-0.7-3.1-1.4-4.7-2.1c-1.4,0-2.8,0-4.2,0
		l-0.1,0.1c0,0.1,0,0.2-0.1,0.4C66.1,35.9,66.8,36,67.4,36.3z"/>
	<path class="st0" d="M95.3,33c0.5,0.2,1,0.3,1.4,0.4c0.9-0.4,1.8-0.2,2.6-0.2c0.8,0.5,1.5,1,2.2,1.5c0.3,0,0.7,0,1,0.1
		c1.4,0.5,2.7,0.4,4.2,0c1.2-0.3,2.4-0.7,3.8-0.4c0.1,0,0.4,0.2,0.6,0.3c1-0.7,2.1-0.1,3.1-0.6c1-0.5,2.2,0.1,3.2-0.4
		c1.2,0.2,2.2,0.6,3.1,1c0.9,0.3,1.6,0.9,2.3,1.4c0.7,0.6,1.4,1.2,2.1,1.7c1.2,1,2.5,1.8,4,2.5c0.5-0.1,1.1-0.4,1.6-0.4
		c1.2,0,2.3-0.5,3.3-1c0.4-0.2,0.8-0.5,1.2-0.6c1.4-0.2,2.7-0.8,4-1.2c1.1,0,2.1,0,3.1,0c1.5,0.6,2.4,2.1,4.2,2.4
		c0.9,1.1,2.4,1.6,3.7,2.3c1.6,0,3.1,0,4.7,0c0.9-0.4,1.8-0.8,2.9-1.2c0.5,0.1,1.3,0.1,2.2,0.2c0.3-0.2,0.8-0.4,1.2-0.5
		c1.3,0,2.5,0,3.5,0c1.5,0.6,3,0.9,4.5,1.8c1.6,1.9,3.8,3.6,6.1,5.1c0.4,0.2,0.9,0.3,1.5,0.5c0.7,0,1.5,0,2.2,0
		c1.2,0.8,2.7,0.6,4,1.1c0.4-0.5,1-0.4,1.6-0.4c0.8,0,1.3-0.5,2.1-0.5c0.3-0.3,0.6-0.7,0.9-1c-0.1-0.3-0.1-0.5-0.1-0.7
		c-0.6-0.3-1.2-0.3-1.6-0.1c-0.9,0.5-1.8,0.3-2.7,0.3c-0.9,0-1.8,0-2.8,0c-0.9-0.6-1.9-0.2-2.9-0.4c-0.7-0.5-1.6-0.7-2.4-0.8
		c-0.8-0.9-1.8-1.5-2.2-2.6c-0.1-0.2-0.3-0.3-0.4-0.4c-0.9-0.3-1.3-1.1-2-1.5c-0.6-0.4-1.2-0.8-1.8-1.1c-0.6-0.3-1.3-0.4-1.8-1
		c-0.6,0-1.2,0-1.6,0c-0.7-0.2-0.8-0.8-1.1-0.7c-1.2,0.5-2.1,0.8-3.1,1.2c-0.3-0.1-0.6-0.3-0.9-0.4c-0.8,0-1.6,0-2.4,0
		c-0.8,0.4-1.6,0.8-2.3,1.2c-1.7,0-3.4,0-5,0c-2.4-0.9-4.1-2.6-5.6-4.1c-1.7-0.6-3.1-1-4.6-1.4c-1.3,0.5-2.7,1.1-4.1,1.6
		c-1,0.4-1.7,1.2-2.8,1.2c-0.9,0.6-1.9,0.8-2.8,1c-1.4-0.4-2.8-0.5-4-1.5c-1.1-1-2.5-1.6-3-2.8c-0.9-0.7-1.7-1.2-2.4-1.8
		c-0.5-0.4-1-0.7-1.5-0.8c-1.1-0.2-2.1-0.6-3.3-0.4c-0.9,0.1-1.8,0-2.7,0.3c-0.9,0.3-1.9,0.4-3,0.6c-0.4,0.3-1,0.6-1.6,1
		c-0.6,0.1-1.3,0-1.9,0.2c-0.5,0.2-1,0.2-1.5,0.3c-0.7,0-1.3,0-1.9,0c-1.1-0.8-2-1.6-3.3-2c-1.6,0.3-3.3-0.5-5-0.4
		c-0.1,0-0.2-0.1-0.4-0.2c-0.1,0-0.2,0-0.3,0c-0.5,0.3-0.5,0.7-0.3,1.4C94.5,32.3,94.9,32.7,95.3,33z"/>
	<path class="st0" d="M168.2,77.7c0.6,0.2,1.2,0.1,1.8,0.3c0.5,0.2,1.1,0.1,1.7-0.2c0.8-0.3,1.6-0.5,2.3-0.6c0.9-0.5,1.6-1,2.5-1.4
		c0.9-0.4,1.3-1,1.7-1.8c0.3-0.8,0.6-1.6,0.9-2.4c-0.5-0.7-1.2-1.3-2-1.7c-0.6-0.3-1.1-0.6-1.7-0.9c-1.2-0.5-2.4-1-3.8-0.8
		c-0.6,0.2-1.2,0.6-1.9,0.8c-0.5,0.1-1,0.4-1.3,0.7c-1,0.9-1.9,1.9-2.3,3.3c-0.1,0.5-0.5,0.9-0.7,1.4c0,0.7,0,1.5,0,2.3
		c0.3,0.3,0.6,0.6,0.9,0.9C166.9,77.6,167.6,77.5,168.2,77.7z M167.2,73.9c0.4-0.6,0.7-1.6,0.9-1.9c1.3-1.4,2-1.7,3.5-2.1
		c0.6-0.2,1.6,0.2,2.2,0.2c0.3,0.2,2,0.7,2.3,0.9c-0.1,0.1-1.4,0.1-1.5,0.1c-0.5,0-1.3,0.5-1.7,0.7c-1.5,0.7-2.6,0.7-3.9,1.5
		c-0.4,0.5-1.1,1-1.6,1.5c0,0.3,0.3,0.5,0.5,0.5c0.9,0.1,1.3-0.7,2.2-0.7c1,0,2.2-0.4,3.1-0.9c0.9-0.4,1.7-0.6,2.7-1.1
		c0.2,0,0.7-1.2,0.8-0.8l-0.2,1.2c-0.5,0.6-0.8,1.6-1.4,1.9c-1.4,0.7-2.8,1-4.2,1.5c-0.3-0.1-0.9,0-1.4-0.2c-0.4,0-1.2-0.1-1.8-0.1
		c-0.3-0.2-0.8-0.2-1.2-0.4C166.6,75.2,167.2,74.5,167.2,73.9z"/>
	<path class="st0" d="M185.2,87.5c0.1,0,0.4,0,0.5-0.1c1-0.5,1.5-0.7,2.2-0.9c0.9-0.4,1.7-0.6,2.6-0.9c1.3-0.5,2.5-1,3.3-2.3
		c0-0.2,0-0.3,0-0.4c-0.3-0.8-0.4-0.9-0.7-1.6c-0.1-0.2-0.4-0.3-0.5-0.5c-0.5,0-0.8,0-1.3,0c-0.8,0.4-1.4,0.7-2.1,0.9
		c-1.5,0.4-2.9,1.2-4.2,1.9c-0.4,0.2-0.8,0.6-1.1,0.9c0,0.7,0,1.3,0,1.8C184.2,87.1,184.2,87.2,185.2,87.5z M185.3,85.4
		c0.1-0.1,0.2-0.3,0.4-0.6c0.4,0,0.6-0.3,1-0.4c1.3-0.9,3.5-1.7,5-1.9c0.4,0.3,0.7,0.1,0.6,0.6c-1.3,0.7-3.2,1.6-4.7,2.1
		c-0.6,0.2-1.2,0.5-1.9,0.8C185.4,85.7,185.3,86.1,185.3,85.4z"/>
	<polygon class="st0" points="162.9,84.3 162.9,84.3 162.9,84.3 162.9,84.3 	"/>
	<path class="st0" d="M165.2,83.7c0-0.4,0-0.7,0-1.1c-0.3-0.5-0.6-1-0.9-1.4c-0.5,0-0.9,0-1.3,0c-0.3,0.4-0.7,0.7-1,1.1
		c0.1,0.8,0.6,1.4,0.8,2c0.4,0.1,0.8,0.2,1.3,0.4C164.6,84.3,164.9,84,165.2,83.7z"/>
	<path class="st0" d="M102.8,207.7c0.5,1,1.2,1.8,2.6,2.2c0.1-0.1,0.4-0.4,0.5-0.5c-0.2-0.7-0.4-1.3-0.6-1.8
		c-0.7-0.8-1.5-1.5-2.1-2.4c-0.4-0.6-0.8-1.2-1.3-1.7c-1.2-1.3-2.5-2.5-3.6-4.3c0-0.1-0.1-0.4-0.2-0.6c-0.2-0.4-0.5-0.8-0.7-1.1
		c-0.7-1.2-1.4-2.3-2.4-3.3c-0.4-0.4-0.8-0.9-1.1-1.3c-1.2-1.6-2.4-3.2-3.1-5.1c-0.1-0.2-0.4-0.4-0.5-0.6c-0.8-1.3-1.8-2.5-2.4-4
		c-0.4-1-1.9-5.3-2.1-6.4c-0.3-1.3-0.9-2.6-0.8-4c-0.6-1.6-0.8-3.2-1.1-4.9c-0.1-0.5-0.5-0.9-0.4-1.5c0.1-0.7-0.2-1.3-0.3-1.9
		c-0.1-0.7,0-1.5-0.1-2.2c-0.1-0.6-0.4-1.2-0.4-1.9c0-0.1-0.1-0.1-0.2-0.2c-0.1-0.1-0.3-0.2-0.6-0.4c-0.3,0.2-0.5,0.4-0.7,0.6
		c0,1.3,0,2.5,0,3.6c0.4,1.6,1.3,3,1.2,4.6c0,0.2,0.2,0.5,0.2,0.7c0.3,1.2,0.6,2.4,0.9,3.5c0.1,0.6,0,1.2,0.1,1.8
		c0.1,0.6,0.3,1.1,0.3,1.7c0,1.5,0.4,2.8,0.8,4.1c0.4,1.3,0.7,2.6,1.4,3.8c0.9,1.4,1.7,2.9,2.5,4.3c1.2,1.9,2.5,3.6,3.8,5.4
		c0.7,1.1,1.5,2.1,2.1,3.2c0.3,0.6,0.7,1.2,1.2,1.7c0.8,0.7,1.3,1.6,1.7,2.4c0.7,0.9,1.5,1.4,2,2.3c0.1,0.3,0.4,0.6,0.7,0.7
		C101.4,205.1,102.1,206.4,102.8,207.7z"/>
	<path class="st0" d="M132.4,188.5c-1.5,1.4-2.6,3.2-4.1,4.5c-0.1,0.1-0.3,0.3-0.4,0.5c-0.2,0.6-0.7,1-1.1,1.4c-1,1-2,2-3.1,3.1
		c-0.3,0.3-0.7,0.6-0.9,1c-0.9,1.4-2.1,2.6-3.2,3.9c-0.8,0.9-1.6,1.7-2.5,2.5c0,0.3,0.1,0.6,0.1,0.9c0.3,0,0.6,0.1,0.7,0.1
		c0.4-0.3,0.8-0.5,1.2-0.8c0.7-0.5,1.5-1,2.2-1.6c0.5-0.4,0.8-1,1.2-1.5c0.4-0.6,1.1-0.9,1.4-1.6c0-0.1,0.2-0.2,0.2-0.2
		c0.5-0.2,0.9-0.4,1.3-0.6c2.2-2.1,3.8-4.8,6.4-6.4c0.7-1.2,1.7-2,2.1-3.3c0.6-0.5,1.1-1,1.5-1.4c0.4-0.9,0.8-1.8,1.5-2.4
		c0.2-0.2,0.3-0.4,0.4-0.7c0.4-0.9,0.9-1.7,1.3-2.6c0.5-0.9,1-1.7,1.4-2.5c0.4-0.9,0.9-1.7,1.3-2.6c1-2,2-3.9,2.7-5.4
		c0.4-1.8,0.7-3,0.9-4.3c-0.2-0.2-0.4-0.4-0.6-0.5c-0.2,0-0.4,0-0.9,0c-0.1,0.1-0.2,0.3-0.3,0.5c-0.3,0.9-0.7,1.8-0.9,2.7
		c-0.1,0.8-0.5,1.5-0.8,2.2c0,0.3,0,0.6-0.1,1c-0.8,1-1.6,1.8-2.1,2.7c-0.6,1-1,2.1-1.3,3.2c-0.4,1.2-0.8,2.3-1.5,3.6
		c-0.9,0.8-2,1.7-3,2.5C133.1,187,132.8,187.8,132.4,188.5z"/>
	<path class="st0" d="M94.5,181.2c0.2,0.4,0.5,0.7,0.8,1.1c1.1,1.8,2.1,3.7,3.2,5.5c0.3,0.6,0.7,1.1,1.1,1.6
		c1.1,1.2,1.8,2.5,2.7,3.8c0.7,1,1.4,2,2.2,2.8c0.6,1.2,1.2,2.3,1.7,3.4c0.6,1.2,1,2.4,1.7,3.5c0.7,1,0.8,2.3,1.7,3.3
		c0.5,0,1,0,1.5,0c0.2-0.2,0.3-0.4,0.5-0.6c0,0,0-0.1,0-0.2c-0.4-0.8-0.8-1.7-1.2-2.5c-0.5-0.6-1.1-1.1-1.4-1.7
		c-0.7-1.2-1.5-2.2-2.1-3.5c-0.6-1.2-1.4-2.3-2-3.6c-0.1-0.3-0.3-0.6-0.4-0.9c-0.9-1.3-1.7-2.7-2.5-4.1c-0.6-1-1.2-2-1.8-3
		c-1-1.8-2.4-3.4-3.5-5.1c-1.4-2.2-2.8-5.1-3.9-8c-0.4-1-0.6-2.1-0.9-3.1c-0.5-0.1-1-0.2-1.3,0.2c-0.3,1.3,0.2,2.5,0.5,3.6
		C91.8,176.6,93.1,178.9,94.5,181.2z"/>
	<path class="st0" d="M123.4,189.2c-0.7,0.7-1.4,1.4-1.9,2.2c-0.5,0.9-1.1,1.6-1.8,2.3c-0.2,0.2-0.3,0.4-0.5,0.6c0,0.3,0,0.5,0,0.8
		c0,0.3,0.2,0.4,0.6,0.5c0.4-0.4,0.8-0.8,1.2-1.2c2.1-2.1,4.2-4.3,6.4-6.4c1.3-1.2,2.3-2.6,3.3-4.1c0.2-0.4,0.3-0.9,0.5-1.2
		c1.1-1.5,1.8-3.1,2.9-4.6c0.2-0.3,0.3-0.7,0.5-1.1c0.5-1.4,1.1-2.9,1.8-4.3c0.1-0.2,0.2-0.5,0.2-0.6c-0.2-0.6-0.4-0.9-1.1-0.9
		c-0.2,0.2-0.4,0.5-0.5,0.7c-0.2,0.5-0.3,1-0.6,1.4c-0.6,0.8-1,1.8-1.5,2.7c-0.6,1.1-1.3,2.3-2.2,3.1c-0.4,0.3-0.8,0.7-1.2,1
		l0.2,0.1c-0.4,0.9-0.8,1.8-1.1,2.5c-1.5,1.5-2.7,3-3.7,4.9C124.5,188.3,123.9,188.7,123.4,189.2z"/>
	<path class="st0" d="M106.5,186.7c1.7,3.4,3.3,6.8,5.2,10c0.5,0.9,1.2,1.5,2,2.1c0.3-0.1,0.5-0.1,0.8-0.2c0-0.4,0-0.7,0.1-1.1
		c-0.3-0.4-0.6-0.7-0.8-1c-0.2-0.3-0.3-0.7-0.4-1.1c-0.2-0.5-0.4-1.1-0.8-1.5c-0.5-0.6-0.9-1.3-1.2-2c-0.8-1.5-1.4-3-2-4.6
		c-0.4-1-0.9-1.8-1.6-2.6c-0.6-0.7-1.3-1.4-1.9-2.2c-0.5-0.7-1-1.4-1.3-2.4c-0.1-0.5-0.3-1.1-1-1.4c-0.3-0.1-0.7-0.1-0.9,0.3
		c0,1.1,0,2.2,0,3.2c0.2,0.4,0.3,0.8,0.5,1.1C104.3,184.5,105.4,185.6,106.5,186.7z"/>
	<path class="st0" d="M116.6,189.5c0.3-0.6,0.6-1.1,1-2c0.3-0.3,1-0.9,1.6-1.5c0.4-0.5,1.1-0.7,1.4-1.3c0.3-0.5,0.8-0.8,1.2-1.3
		c0.4-0.5,0.7-1.1,1-1.6c0.2-0.3,0.5-0.7,0.8-0.9c1.2-0.4,1.4-1.7,2.2-2.4c0.3-0.9,1-1.7,1.6-2.4c0.3-0.4,0.6-0.9,0.5-1.4
		c0-0.3-0.1-0.7-0.6-0.6c-0.5,0.4-1,0.9-1.4,1.5c-0.5,0.6-1.1,1.1-1.7,1.6l-0.1,0.2c-0.9,1.4-2.1,2.6-3.6,3.6
		c-0.3,0.2-0.6,0.5-0.8,0.8c-0.8,1.3-1.7,2.5-2.6,3.4c-0.8,1.4-1.2,2.8-2.2,3.9c0.2,0.4,0.4,0.7,0.6,1.1
		C115.8,189.8,116.2,189.6,116.6,189.5z"/>
</g>
</svg>
