<?xml version="1.0" encoding="utf-8"?>
<!-- Generator: Adobe Illustrator 28.0.0, SVG Export Plug-In . SVG Version: 6.00 Build 0)  -->
<svg version="1.1" id="Logo_1_xA0_Image_00000008116026804894981920000003452462201396094350_"
	 xmlns="http://www.w3.org/2000/svg" xmlns:xlink="http://www.w3.org/1999/xlink" x="0px" y="0px" viewBox="0 0 452.1 157.1"
	 style="enable-background:new 0 0 452.1 157.1;" xml:space="preserve">
<g>
	<path d="M329.4,25c-0.1,0.5-0.3,0.8-0.4,1.2c-1.3,3.7-1.8,7.6-2.3,11.4c-0.6,4.8-1.2,9.5-2.8,14.1c-0.8,2.2-1,4.5-0.2,6.8
		c0.1,0.3,0.1,0.8-0.1,1c-0.7,0.6-0.6,1.4-0.5,2.2c0.1,0.7,0.2,1.3,0.3,2c0.1,0.8,0,1.7-0.7,2.5c-0.7-1.5-1.4-2.9-2.1-4.1
		c-2-3.7-3.6-7.6-4.7-11.7c-1-3.9-3-7.3-5.9-10.1c-3.6-3.6-8-5.8-12.6-7.9c-1.1-0.5-1.7-0.2-2.3,0.8c-0.2,0.3-0.4,0.7-0.5,1.1
		c-1.2,3.4-1.7,6.9-1.7,10.4c0,4.1,0.3,8.2,0.4,12.3c0.1,6.5,0,12.9-0.4,19.3c-0.4,6.1-0.8,12.2-1.2,18.3
		c-0.3,5.1-0.5,10.3-0.8,15.5c-0.1,1.8-0.2,3.7-0.4,5.5c-0.4,4.5,1.3,7.8,5.2,10.1c1.2,0.7,2,0.4,2.4-1c0.2-0.5,0.3-1.1,0.4-1.6
		c1.3-6.7,1.9-13.4,2.4-20.2c0.3-4.1,0.7-8.3,1.1-12.4c0.7-7.1,1.5-14.2,2.2-21.3c0.2-2,1.4-3.2,3.1-3.9c1.5-0.7,2.6-0.1,3.2,1.4
		c0.5,1.3,0.6,2.8,0.7,4.2c0.3,6.3,0.7,12.5,1,18.8c0.1,3.7,0.8,7.3,1.9,10.8c2.3,6.8,5.4,13.3,9.4,19.3c1.5,2.2,3.3,4.1,5.8,5.4
		c2.2,1.1,3.6,0.8,5-1.2c0.9-1.3,1.8-2.6,2.8-3.9c1.1-1.5,1.4-3.2,1-5c-1.1-4.2-1.5-8.4-1.2-12.8c0.4-5.9,0.6-11.9,0.8-17.9
		c0.2-6.5,0.4-12.9,0.5-19.4c0.1-5.5,0.2-10.9,0.3-16.4c0.1-1,0.2-1.9,0.8-2.7c1-1.5,1.5-3.2,1.4-4.9c-0.2-2.9-0.8-5.7-2.2-8.3
		C336.5,29,333,27,329.4,25z"/>
	<path d="M50.6,80.6c1.3,0,2.5,0.3,3.8,0.3c2.2,0.1,4.5,0.3,6.7,0c2.6-0.4,5.1-0.5,7.6,0.1c1.8,0.4,3.6,0.4,5.4-0.4
		c0.4-0.2,0.8-0.1,1.2-0.1c2.4,0.1,4.8,0.2,7.2,0.3c0.5,0,1,0,1.5-0.1c1.7-0.4,2.2-1.3,1.5-2.9c-0.3-0.7-0.7-1.4-0.9-2.1
		c-0.7-2.6-2.4-4.1-4.9-4.7c-0.8-0.2-1.7-0.4-2.5-0.7c-2.5-0.8-5-1.6-7.5-2.4c-1.1-0.3-2.3-0.4-3.5-0.1c-2.2,0.6-4.4,1-6.7,1.2
		c-3.3,0.3-6.6,0-9.9-0.4c-0.3,0-0.7-0.4-0.8-0.7c-0.4-1.4-1-2.9-0.4-4.4c0.1-0.4,0.2-0.7,0.2-1.1c0.3-2.8,1.5-5.2,3.2-7.4
		c1.4-1.7,2.6-3.5,3.9-5.2c0.4-0.5,0.7-0.7,1.3-0.7c1.8,0,3.6,0.1,5.4,0.1c1.1,0,2.3-0.2,3.4-0.4c2.1-0.4,4.2-1,6.3,0
		c0.3,0.2,0.6,0.2,1,0.2c4,0.2,7.3-1.3,10-4.2c2.8-3,2.7-6.7-0.1-9.7c-1.5-1.6-3.4-2.8-5.4-3.6c-0.7-0.3-1.6-0.4-2.3-0.2
		c-1.3,0.4-2.5,0.2-3.7-0.2c-3.1-0.9-6.1-1.9-9.2-2.7c-4-1.1-8.1-1.5-12.3-0.6c-3.4,0.7-6.7,1.6-10.1,2.4c-0.6,0.2-1,0.6-1.2,1.2
		C38.2,33,37.6,34.5,37,36c-0.7,1.7-1.2,3.3-1.1,5.2C36,43,36,44.8,36,46.6c0,2-0.2,4.1-0.1,6.1c0.1,2.4,0.3,4.7,0.6,7.1
		c0.2,2.1,0.4,4.1,0.3,6.2c-0.2,3.1-0.2,6.2-0.4,9.3c-0.3,5.1-0.6,10.3-0.9,15.4c-0.1,2.2-0.3,4.5-0.3,6.7c0,3.5-0.1,6.9,0.1,10.4
		c0.3,4.3,3.2,7.6,7.3,8.7c4.1,1.1,8.3,1.6,12.5,1.8c4.4,0.3,8.9,0.3,13.3,0.3c4.3-0.1,8.5-1,12.4-2.9c1.4-0.6,2.7-1.4,3.9-2.3
		c1.4-1,1.4-2.5-0.1-3.4c-0.7-0.5-1.4-0.8-2.2-1c-2.1-0.4-4.2-0.8-6.3-1c-3.1-0.2-6.2-0.3-9.3-0.4c-3.7,0.2-7.5,0.3-11.4-0.3
		c-1.9-0.3-3.9-0.8-5.8-1.3c-0.4-0.1-0.9-0.3-0.7-0.9c0.5-1.8,0-3.6-0.4-5.3c-0.6-2.5-0.6-5,0.3-7.4c0.3-1,0.7-2.1,0.7-3.1
		c0.1-2.4,0-4.9-0.1-7.4C49.4,80.8,49.5,80.5,50.6,80.6z"/>
	<path d="M419,80.1c0-1.4-0.3-2.9-0.2-4.3c0.1-2.1-0.4-4-1.3-5.8c-1.3-2.6-1.9-5.4-1.9-8.4c0-1.4,0-2.9-0.1-4.3
		c-0.3-5.7-2.2-10.8-5.6-15.4c-2.6-3.5-5.7-6.6-9.8-8.4c-4.6-2-9.2-1.8-13.5,0.9c-2,1.3-3.5,3.1-4.8,5.1c-2.8,4.4-4.7,9.2-6,14.3
		c-1.7,6.6-2.9,13.2-3.6,19.9c-0.7,6-1.2,12.1-1.6,18.1c-0.3,4.9-0.3,9.7-0.4,14.6c0.1,3.1,0.2,6.3-0.1,9.5c0.1,1.9,0.6,3.7,1.7,5.2
		c1,1.5,2.4,1.8,4,1c1.1-0.5,1.9-1.3,2.3-2.4c0.7-1.7,1.5-3.5,1.9-5.3c1-4.3,1.9-8.7,2.7-13.1c0.8-4,2-7.7,4.3-11
		c1.5-2.1,3.3-3.7,5.6-4.8c1.1-0.5,2.1-0.5,3.1,0.4c0.4,0.3,0.9,0.7,1.4,0.8c1.1,0.3,2.1,0.5,3.2,0.6c1.3,0.2,2.6,0.2,3.9,0.4
		c1.3,0.3,1.9,1,1.8,2.4c-0.1,0.7-0.2,1.5-0.4,2.2c-0.8,2.9-1.2,5.9-0.8,8.9c0.4,2.8,1.3,5.3,3.3,7.3c1.5,1.5,3.1,2.8,4.6,4.2
		c0.2,0.1,0.3,0.2,0.5,0.3c0.8,0.5,1.5,0.4,1.8-0.5c0.5-1.1,1.3-1.8,2.4-2.2c1-0.5,1.5-1.4,1.6-2.5c0-1,0.1-2.1,0.1-3.1
		c0.1-5.4,0.1-10.9,0.1-16.3C419.2,85.6,419.1,82.9,419,80.1z M399.9,80.1c-3.7,0.8-7.2,0.3-10.4-2c-1.1-0.8-1.8-1.8-2.3-2.9
		c-0.2-0.3-0.3-0.6-0.2-0.9c0.5-1.5,0.2-3-0.1-4.5c-0.3-1.7-0.2-3.3,0.5-4.9c1.5-3.5,3.3-6.8,5.8-9.7c1.8-2,3.9-3.5,6.6-4.1
		c1.2-0.3,1.9-0.1,2.6,0.9c1.2,1.6,1.9,3.4,2.1,5.4c0.4,3.6,0.7,7.1,1,10.7c0.1,1.1,0.2,2.2,0.3,3.3C406,75.5,403.6,79.1,399.9,80.1
		z"/>
	<path d="M221.6,31c-0.9-0.4-1.9-0.8-2.7-1.4c-1.1-0.9-2.2-1.4-3.5-1.8c-1.1-0.4-2.2-0.5-3.3-0.2c-1.4,0.3-2.6,1-3.1,2.5
		c-0.7,2-1.6,4-2.1,6c-0.7,2.7-1.1,5.5-1.7,8.2c-1.4,6.3-3.3,12.5-5.3,18.6c-1.6,4.9-3.1,9.9-4.5,14.9c-0.9,3-1.3,6.1-2.1,9.2
		c-0.4,1.7-1,3.3-1.6,4.9c-0.4,1-1,1.2-1.8,0.4c-0.6-0.5-1.2-1.2-1.4-1.9c-0.3-1-0.4-2.1-0.5-3.1c-0.4-3.1-0.6-6.3-0.9-9.5
		c-0.3-3.4-0.8-6.8-1.1-10.2c-0.3-2.4-0.6-4.7-1.5-6.9c-1.8-4.2-2.3-8.5-2.1-13c0.1-1.8,0.1-3.7,0-5.5c-0.1-2.3-0.7-4.5-1.8-6.5
		c-0.8-1.5-2-2.6-3.8-2.6c-1.9,0.1-3.7,0.2-5.5,0.5c-2.8,0.6-4.4,4.4-2.5,6.5c1,1.2,1.3,2.7,1,4.3c-0.4,2.1-0.5,4.2,0,6.3
		c0.7,3,1.6,5.9,2.4,8.9c0.9,3.3,1.7,6.6,1.6,10c0,0.2,0,0.5,0,0.7c-0.1,1.2,0,2.4,0.8,3.5c0.3,0.4,0.5,1,0.7,1.6
		c0.7,1.9,0.8,4,0.9,6c0.3,4.9,0.5,9.7,0.8,14.6c0.2,3.3,0.8,6.5,1.8,9.7c2,6.1,5.6,11.5,8.6,17.1c0.2,0.4,0.6,0.7,1.1,0.5
		c0.7-0.2,1.2,0,1.7,0.3c1.1,0.6,2.2,0.5,3.1-0.3c0.8-0.6,1.4-1.4,2-2.2c1.6-2.2,2.4-4.8,3.3-7.3c2-5.6,3.2-11.4,4.3-17.2
		c1.1-5.5,2.5-11,4.6-16.2c1.7-4.2,3.6-8.3,5.4-12.4c2.4-5.4,4.4-11,5.5-16.9c0.3-1.7,0.3-3.6,0.8-5.3c0.8-3.2,1.6-6.5,4.1-9
		c0.3-0.4,0.5-1,0.5-1.5c0-0.7-0.2-1.3-0.3-2C223.3,32.1,222.7,31.4,221.6,31z"/>
	<path d="M153,118.5c-0.9-1.3-1.1-2.8-0.6-4.3c0.1-0.4,0.3-0.9-0.3-1.1c-1.3-0.5-2.2-1.6-3.1-2.6c-0.5-0.6-1.2-1.1-1.9-1.4
		c-3.1-1.5-6.4-2.4-9.8-3.1c-2.1-0.5-4.2-0.4-6.3,0.1c-1.2,0.3-2.4,0.6-3.6,0.8c-1.7,0.4-2.2-0.1-2-1.9c0.1-0.8,0.2-1.6,0.4-2.4
		c0.6-3.2,1.1-6.3,1-9.6c-0.1-3.7,0.2-7.5,0.2-11.3c0-1.4-0.1-2.9-0.1-4.3c0.1-2.9,0.2-5.7,0.4-8.6c0.1-3.1,0.4-6.1,0.6-9.1
		c0.2-2.8,0.6-5.7,0.1-8.5c-0.7-4.4-2.3-8.4-5.2-11.8c-0.5-0.6-1.1-1.2-1.8-1.7c-1.3-0.8-2.4-0.7-3.5,0.4c-0.3,0.3-0.6,0.6-0.8,0.9
		c-1.1,1.5-1.4,3.3-1.4,5.2c-0.1,7.3-0.1,14.6-0.2,21.9c0,3.8,0,7.5-0.1,11.3c-0.1,4.1-0.2,8.2-0.5,12.3c-0.3,4.6-0.9,9.1-1.3,13.7
		c-0.4,5-0.8,10-1.2,15c-0.1,0.4,0,0.8,0.1,1.2c0.6,2,1.8,3.4,3.3,4.8c1.2,1.2,2.7,1.4,4.3,1.5c4.2,0.2,8.3,0.3,13.5,0.5
		c4.3-0.3,9.6-0.5,15.1-0.9c0.2,0,0.4-0.1,0.6-0.1c1.1-0.2,1.4-0.8,1.2-1.8c-0.2-0.5-0.4-1.1-0.5-1.6c-0.3-1.2,0.2-2,1.5-2.1
		c0.4-0.1,0.9,0,1.4-0.1c0.7-0.1,0.9-0.5,0.6-1.1L153,118.5z"/>
	<path d="M260.7,72.8c-0.4-4.8-1.1-9.6-1.6-14.4c-0.3-2.3-0.6-4.7-1.3-7c-0.5-1.8-1-3.6-0.7-6.4c0.2-1.9-0.9-4-2.7-5.8
		c-0.5-0.4-1-0.8-1.5-1.2c-1.1-0.9-1.9-0.8-2.7,0.4c-0.2,0.3-0.3,0.5-0.5,0.8c-1.7,2.7-2.3,5.7-2.4,8.8c-0.1,3.9-0.1,7.7-0.3,11.6
		c-0.3,6.1-0.8,12.2-1.3,18.3c-0.3,4.4-0.6,8.7-1,13.1c-0.3,3.6-1,7.1-2.3,10.4c-0.6,1.4-0.7,2.8-0.5,4.2c0.1,0.6,0.3,1.3,0.7,1.8
		c0.6,0.9,1.4,1.8,2.1,2.7c2.2,2.7,4.4,5.5,7.1,7.7c0.4,0.3,1,0.7,1.5,0.8c3.6,0.7,6.3-2,5.7-5.7c-0.2-1.2-0.6-2.4-0.8-3.7
		c-0.2-1.1-0.5-2.3-0.4-3.5c0.1-1.9,0.4-3.7,0.7-5.5c0.3-2.2,0.7-4.4,2-6.3c0.9-1.3,1.2-2.8,1.2-4.4c-0.1-1.8-0.1-3.7-0.2-5.5
		C261.3,80.3,261.1,76.5,260.7,72.8z"/>
</g>
</svg>
